ply
format ascii 1.0
comment SOLIDWORKS generated,length unit = millimeters
element vertex 125
property float x
property float y
property float z
element face 244
property uchar red
property uchar green
property uchar blue
property uchar alpha
property list uchar int vertex_indices
end_header
0.102992 -3.99867 -0.5 
0.102992 -3.99867 0 
-0.308702 -3.98807 -0.5 
-0.308702 -3.98807 0 
0.513593 -3.96689 -0.5 
0.513593 -3.96689 0 
-0.717123 -3.93519 -0.5 
-0.717123 -3.93519 0 
0.918751 -3.89306 -0.5 
0.918751 -3.89306 0 
-1.11794 -3.8406 -0.5 
-1.11794 -3.8406 0 
1.31417 -3.77796 -0.5 
1.31417 -3.77796 0 
-1.50691 -3.7053 -0.5 
-1.50691 -3.7053 0 
1.69566 -3.62281 -0.5 
1.69566 -3.62281 0 
-1.87991 -3.53072 -0.5 
-1.87991 -3.53072 0 
2.05917 -3.42926 -0.5 
2.05917 -3.42926 0 
-2.23297 -3.31871 -0.5 
-2.23297 -3.31871 0 
2.40086 -3.19936 -0.5 
2.40086 -3.19936 0 
-2.56237 -3.07152 -0.5 
-2.56237 -3.07152 0 
2.71709 -2.93554 -0.5 
2.71709 -2.93554 0 
-2.86461 -2.79178 -0.5 
-2.86461 -2.79178 0 
3.00453 -2.64061 -0.5 
3.00453 -2.64061 0 
-3.13648 -2.48244 -0.5 
-3.13648 -2.48244 0 
3.26011 -2.31768 -0.5 
3.26011 -2.31768 0 
-3.3751 -2.14678 -0.5 
-3.3751 -2.14678 0 
3.48114 -1.97019 -0.5 
3.48114 -1.97019 0 
-3.57795 -1.78838 -0.5 
-3.57795 -1.78838 0 
3.66527 -1.60182 -0.5 
3.66527 -1.60182 0 
-3.74287 -1.41101 -0.5 
-3.74287 -1.41101 0 
3.81054 -1.21646 -0.5 
3.81054 -1.21646 0 
-3.86811 -1.01868 -0.5 
-3.86811 -1.01868 0 
3.91542 -0.818208 -0.5 
3.91542 -0.818208 0 
-3.95235 -0.615562 -0.5 
-3.95235 -0.615562 0 
3.9788 -0.411284 -0.5 
3.9788 -0.411284 0 
-3.9947 -0.205915 -0.5 
-3.9947 -0.205915 0 
4 -9.79717e-16 0 
0 0 -0.5 
4 0 -0.5 
0 0 0 
4 0 0 
-3.9947 0.205915 -0.5 
-3.9947 0.205915 0 
3.9788 0.411284 -0.5 
3.9788 0.411284 0 
-3.95235 0.615562 -0.5 
-3.95235 0.615562 0 
3.91542 0.818208 -0.5 
3.91542 0.818208 0 
-3.86811 1.01868 -0.5 
-3.86811 1.01868 0 
3.81054 1.21646 -0.5 
3.81054 1.21646 0 
-3.74287 1.41101 -0.5 
-3.74287 1.41101 0 
3.66527 1.60182 -0.5 
3.66527 1.60182 0 
-3.57795 1.78838 -0.5 
-3.57795 1.78838 0 
3.48114 1.97019 -0.5 
3.48114 1.97019 0 
-3.3751 2.14678 -0.5 
-3.3751 2.14678 0 
3.26011 2.31768 -0.5 
3.26011 2.31768 0 
-3.13648 2.48244 -0.5 
-3.13648 2.48244 0 
3.00453 2.64061 -0.5 
3.00453 2.64061 0 
-2.86461 2.79178 -0.5 
-2.86461 2.79178 0 
2.71709 2.93554 -0.5 
2.71709 2.93554 0 
-2.56237 3.07152 -0.5 
-2.56237 3.07152 0 
2.40086 3.19936 -0.5 
2.40086 3.19936 0 
-2.23297 3.31871 -0.5 
-2.23297 3.31871 0 
2.05917 3.42926 -0.5 
2.05917 3.42926 0 
-1.87991 3.53072 -0.5 
-1.87991 3.53072 0 
1.69566 3.62281 -0.5 
1.69566 3.62281 0 
-1.50691 3.7053 -0.5 
-1.50691 3.7053 0 
1.31417 3.77796 -0.5 
1.31417 3.77796 0 
-1.11794 3.8406 -0.5 
-1.11794 3.8406 0 
0.918751 3.89306 -0.5 
0.918751 3.89306 0 
-0.717123 3.93519 -0.5 
-0.717123 3.93519 0 
0.513593 3.96689 -0.5 
0.513593 3.96689 0 
-0.308702 3.98807 -0.5 
-0.308702 3.98807 0 
0.102992 3.99867 -0.5 
0.102992 3.99867 0 
135 140 140 0 3 3 2 0
135 140 140 0 3 1 3 0
135 140 140 0 3 4 1 0
135 140 140 0 3 61 4 0
135 140 140 0 3 2 61 0
135 140 140 0 3 4 5 1
135 140 140 0 3 5 63 1
135 140 140 0 3 63 3 1
135 140 140 0 3 7 6 2
135 140 140 0 3 3 7 2
135 140 140 0 3 6 61 2
135 140 140 0 3 63 7 3
135 140 140 0 3 8 5 4
135 140 140 0 3 61 8 4
135 140 140 0 3 8 9 5
135 140 140 0 3 9 63 5
135 140 140 0 3 11 10 6
135 140 140 0 3 7 11 6
135 140 140 0 3 10 61 6
135 140 140 0 3 63 11 7
135 140 140 0 3 12 9 8
135 140 140 0 3 61 12 8
135 140 140 0 3 12 13 9
135 140 140 0 3 13 63 9
135 140 140 0 3 15 14 10
135 140 140 0 3 11 15 10
135 140 140 0 3 14 61 10
135 140 140 0 3 63 15 11
135 140 140 0 3 16 13 12
135 140 140 0 3 61 16 12
135 140 140 0 3 16 17 13
135 140 140 0 3 17 63 13
135 140 140 0 3 19 18 14
135 140 140 0 3 15 19 14
135 140 140 0 3 18 61 14
135 140 140 0 3 63 19 15
135 140 140 0 3 20 17 16
135 140 140 0 3 61 20 16
135 140 140 0 3 20 21 17
135 140 140 0 3 21 63 17
135 140 140 0 3 23 22 18
135 140 140 0 3 19 23 18
135 140 140 0 3 22 61 18
135 140 140 0 3 63 23 19
135 140 140 0 3 24 21 20
135 140 140 0 3 61 24 20
135 140 140 0 3 24 25 21
135 140 140 0 3 25 63 21
135 140 140 0 3 27 26 22
135 140 140 0 3 23 27 22
135 140 140 0 3 26 61 22
135 140 140 0 3 63 27 23
135 140 140 0 3 28 25 24
135 140 140 0 3 61 28 24
135 140 140 0 3 28 29 25
135 140 140 0 3 29 63 25
135 140 140 0 3 31 30 26
135 140 140 0 3 27 31 26
135 140 140 0 3 30 61 26
135 140 140 0 3 63 31 27
135 140 140 0 3 32 29 28
135 140 140 0 3 61 32 28
135 140 140 0 3 32 33 29
135 140 140 0 3 33 63 29
135 140 140 0 3 35 34 30
135 140 140 0 3 31 35 30
135 140 140 0 3 34 61 30
135 140 140 0 3 63 35 31
135 140 140 0 3 36 33 32
135 140 140 0 3 61 36 32
135 140 140 0 3 36 37 33
135 140 140 0 3 37 63 33
135 140 140 0 3 39 38 34
135 140 140 0 3 35 39 34
135 140 140 0 3 38 61 34
135 140 140 0 3 63 39 35
135 140 140 0 3 40 37 36
135 140 140 0 3 61 40 36
135 140 140 0 3 40 41 37
135 140 140 0 3 41 63 37
135 140 140 0 3 43 42 38
135 140 140 0 3 39 43 38
135 140 140 0 3 42 61 38
135 140 140 0 3 63 43 39
135 140 140 0 3 44 41 40
135 140 140 0 3 61 44 40
135 140 140 0 3 44 45 41
135 140 140 0 3 45 63 41
135 140 140 0 3 47 46 42
135 140 140 0 3 43 47 42
135 140 140 0 3 46 61 42
135 140 140 0 3 63 47 43
135 140 140 0 3 48 45 44
135 140 140 0 3 61 48 44
135 140 140 0 3 48 49 45
135 140 140 0 3 49 63 45
135 140 140 0 3 51 50 46
135 140 140 0 3 47 51 46
135 140 140 0 3 50 61 46
135 140 140 0 3 63 51 47
135 140 140 0 3 52 49 48
135 140 140 0 3 61 52 48
135 140 140 0 3 52 53 49
135 140 140 0 3 53 63 49
135 140 140 0 3 55 54 50
135 140 140 0 3 51 55 50
135 140 140 0 3 54 61 50
135 140 140 0 3 63 55 51
135 140 140 0 3 56 53 52
135 140 140 0 3 61 56 52
135 140 140 0 3 56 57 53
135 140 140 0 3 57 63 53
135 140 140 0 3 59 58 54
135 140 140 0 3 55 59 54
135 140 140 0 3 58 61 54
135 140 140 0 3 63 59 55
135 140 140 0 3 62 57 56
135 140 140 0 3 61 62 56
135 140 140 0 3 62 60 57
135 140 140 0 3 60 63 57
135 140 140 0 3 66 65 58
135 140 140 0 3 59 66 58
135 140 140 0 3 65 61 58
135 140 140 0 3 63 66 59
135 140 140 0 3 68 63 60
135 140 140 0 3 75 71 61
135 140 140 0 3 71 67 61
135 140 140 0 3 67 62 61
135 140 140 0 3 87 83 61
135 140 140 0 3 83 79 61
135 140 140 0 3 79 75 61
135 140 140 0 3 99 95 61
135 140 140 0 3 95 91 61
135 140 140 0 3 91 87 61
135 140 140 0 3 111 107 61
135 140 140 0 3 107 103 61
135 140 140 0 3 103 99 61
135 140 140 0 3 123 119 61
135 140 140 0 3 119 115 61
135 140 140 0 3 115 111 61
135 140 140 0 3 113 117 61
135 140 140 0 3 117 121 61
135 140 140 0 3 121 123 61
135 140 140 0 3 101 105 61
135 140 140 0 3 105 109 61
135 140 140 0 3 109 113 61
135 140 140 0 3 89 93 61
135 140 140 0 3 93 97 61
135 140 140 0 3 97 101 61
135 140 140 0 3 77 81 61
135 140 140 0 3 81 85 61
135 140 140 0 3 85 89 61
135 140 140 0 3 65 69 61
135 140 140 0 3 69 73 61
135 140 140 0 3 73 77 61
135 140 140 0 3 67 60 62
135 140 140 0 3 74 70 63
135 140 140 0 3 70 66 63
135 140 140 0 3 86 82 63
135 140 140 0 3 82 78 63
135 140 140 0 3 78 74 63
135 140 140 0 3 98 94 63
135 140 140 0 3 94 90 63
135 140 140 0 3 90 86 63
135 140 140 0 3 110 106 63
135 140 140 0 3 106 102 63
135 140 140 0 3 102 98 63
135 140 140 0 3 122 118 63
135 140 140 0 3 118 114 63
135 140 140 0 3 114 110 63
135 140 140 0 3 116 120 63
135 140 140 0 3 120 124 63
135 140 140 0 3 124 122 63
135 140 140 0 3 104 108 63
135 140 140 0 3 108 112 63
135 140 140 0 3 112 116 63
135 140 140 0 3 92 96 63
135 140 140 0 3 96 100 63
135 140 140 0 3 100 104 63
135 140 140 0 3 80 84 63
135 140 140 0 3 84 88 63
135 140 140 0 3 88 92 63
135 140 140 0 3 68 72 63
135 140 140 0 3 72 76 63
135 140 140 0 3 76 80 63
135 140 140 0 3 67 68 60
135 140 140 0 3 70 69 65
135 140 140 0 3 66 70 65
135 140 140 0 3 71 68 67
135 140 140 0 3 71 72 68
135 140 140 0 3 74 73 69
135 140 140 0 3 70 74 69
135 140 140 0 3 75 72 71
135 140 140 0 3 75 76 72
135 140 140 0 3 78 77 73
135 140 140 0 3 74 78 73
135 140 140 0 3 79 76 75
135 140 140 0 3 79 80 76
135 140 140 0 3 82 81 77
135 140 140 0 3 78 82 77
135 140 140 0 3 83 80 79
135 140 140 0 3 83 84 80
135 140 140 0 3 86 85 81
135 140 140 0 3 82 86 81
135 140 140 0 3 87 84 83
135 140 140 0 3 87 88 84
135 140 140 0 3 90 89 85
135 140 140 0 3 86 90 85
135 140 140 0 3 91 88 87
135 140 140 0 3 91 92 88
135 140 140 0 3 94 93 89
135 140 140 0 3 90 94 89
135 140 140 0 3 95 92 91
135 140 140 0 3 95 96 92
135 140 140 0 3 98 97 93
135 140 140 0 3 94 98 93
135 140 140 0 3 99 96 95
135 140 140 0 3 99 100 96
135 140 140 0 3 102 101 97
135 140 140 0 3 98 102 97
135 140 140 0 3 103 100 99
135 140 140 0 3 103 104 100
135 140 140 0 3 106 105 101
135 140 140 0 3 102 106 101
135 140 140 0 3 107 104 103
135 140 140 0 3 107 108 104
135 140 140 0 3 110 109 105
135 140 140 0 3 106 110 105
135 140 140 0 3 111 108 107
135 140 140 0 3 111 112 108
135 140 140 0 3 114 113 109
135 140 140 0 3 110 114 109
135 140 140 0 3 115 112 111
135 140 140 0 3 115 116 112
135 140 140 0 3 118 117 113
135 140 140 0 3 114 118 113
135 140 140 0 3 119 116 115
135 140 140 0 3 119 120 116
135 140 140 0 3 122 121 117
135 140 140 0 3 118 122 117
135 140 140 0 3 123 120 119
135 140 140 0 3 123 124 120
135 140 140 0 3 124 123 121
135 140 140 0 3 122 124 121
