ply
format ascii 1.0
comment SOLIDWORKS generated,length unit = millimeters
element vertex 395
property float x
property float y
property float z
element face 758
property uchar red
property uchar green
property uchar blue
property uchar alpha
property list uchar int vertex_indices
end_header
-8.74857e-16 -4.7625 -13.4 
-8.74857e-16 -4.7625 16 
-0.745019 -4.70387 -13.4 
0.745019 -4.70387 -13.4 
-0.745019 -4.70387 16 
0.745019 -4.70387 16 
-1.47169 -4.52941 -13.4 
1.47169 -4.52941 -13.4 
-1.47169 -4.52941 16 
1.47169 -4.52941 16 
-2.16213 -4.24342 -13.4 
2.16213 -4.24342 -13.4 
-2.16213 -4.24342 16 
2.16213 -4.24342 16 
-2.79933 -3.85294 -13.4 
2.79933 -3.85294 -13.4 
-2.79933 -3.85294 16 
2.79933 -3.85294 16 
-3.08472 -3.62849 0 
3.08472 -3.62849 0 
3.08472 -3.62849 1.95943e-16 
3.0896 -3.62433 0.138914 
3.08961 -3.62433 -0.138961 
-3.08968 -3.62426 0.140028 
-3.08968 -3.62426 -0.140047 
-3.10432 -3.61173 -0.277837 
3.10432 -3.61173 -0.277837 
-3.10432 -3.61173 0.277837 
3.10432 -3.61173 0.277837 
-3.12841 -3.59089 -0.413691 
-3.12841 -3.59088 0.413702 
3.12862 -3.5907 -0.414693 
3.12863 -3.5907 0.414705 
-3.16177 -3.56155 -0.547232 
3.16177 -3.56155 -0.547232 
-3.16177 -3.56155 0.547232 
3.16177 -3.56155 0.547232 
3.20342 -3.52413 0.675796 
3.20345 -3.5241 -0.675887 
-3.20373 -3.52385 0.676637 
-3.20376 -3.52382 -0.676725 
-3.2532 -3.47823 -0.8 
3.2532 -3.47823 -0.8 
-3.2532 -3.47823 0.8 
3.2532 -3.47823 0.8 
-3.36702 -3.36817 -1.01917 
3.36702 -3.36817 -1.01917 
-3.36702 -3.36817 1.01917 
3.36702 -3.36817 1.01917 
-3.3676 -3.3676 -13.4 
3.3676 -3.3676 -13.4 
-3.3676 -3.3676 16 
3.3676 -3.3676 16 
-3.37268 -3.3625 -1.02846 
3.37268 -3.3625 -1.02846 
-3.37268 -3.3625 1.02846 
3.37268 -3.3625 1.02846 
-2.45842 -3.26689 -3.91887e-16 
-2.45842 -3.26689 0 
2.45842 -3.26689 1.95943e-16 
2.45842 -3.26689 3.10862e-16 
-2.47057 -3.24584 -0.277837 
2.47057 -3.24584 -0.277837 
-2.47057 -3.24584 0.277837 
2.47057 -3.24584 0.277837 
-3.5129 -3.21574 -1.22567 
3.5129 -3.21574 -1.22567 
-3.5129 -3.21574 1.22567 
3.5129 -3.21574 1.22567 
-2.50667 -3.18333 -0.547232 
2.50667 -3.18333 -0.547232 
-2.50667 -3.18333 0.547232 
2.50667 -3.18333 0.547232 
-2.5656 -3.08125 -0.8 
2.5656 -3.08125 -0.8 
-2.5656 -3.08125 0.8 
2.5656 -3.08125 0.8 
-3.66584 -3.04023 -1.38564 
3.66584 -3.04023 -1.38564 
-3.66584 -3.04023 1.38564 
3.66584 -3.04023 1.38564 
3.74427 -2.9431 1.44987 
3.74431 -2.94305 -1.4499 
-3.74454 -2.94276 1.45007 
-3.74457 -2.94272 -1.45009 
-2.64559 -2.94271 -1.02846 
2.64559 -2.94271 -1.02846 
-2.64559 -2.94271 1.02846 
2.64559 -2.94271 1.02846 
3.82347 -2.83945 -1.50349 
-3.82347 -2.83945 1.50349 
-3.82351 -2.83939 -1.50351 
3.82351 -2.83939 1.50351 
-3.85294 -2.79933 -13.4 
3.85294 -2.79933 -13.4 
-3.85294 -2.79933 -1.52058 
3.85294 -2.79933 -1.52058 
-3.85294 -2.79933 1.52058 
3.85294 -2.79933 1.52058 
-3.85294 -2.79933 16 
3.85294 -2.79933 16 
-2.74419 -2.77192 -1.22567 
2.74419 -2.77192 -1.22567 
-2.74419 -2.77192 1.22567 
2.74419 -2.77192 1.22567 
-3.9785 -2.61781 -1.57569 
3.9785 -2.61781 -1.57569 
-3.9785 -2.61781 1.57569 
3.9785 -2.61781 1.57569 
-2.85842 -2.57407 -1.38564 
2.85842 -2.57407 -1.38564 
-2.85842 -2.57407 1.38564 
2.85842 -2.57407 1.38564 
4.05281 -2.50122 -1.59389 
-4.05293 -2.50104 -1.59391 
-4.05296 -2.50099 1.59391 
4.05296 -2.50099 1.59391 
-4.12445 -2.38125 -1.6 
4.12445 -2.38125 -1.6 
-4.12445 -2.38125 1.6 
4.12445 -2.38125 1.6 
-2.9848 -2.35517 -1.50351 
2.9848 -2.35517 -1.50351 
-2.9848 -2.35517 1.50351 
2.9848 -2.35517 1.50351 
-4.24342 -2.16213 -13.4 
4.24342 -2.16213 -13.4 
-4.24342 -2.16213 -1.58047 
4.24342 -2.16213 -1.58047 
-4.24342 -2.16213 1.58047 
4.24342 -2.16213 1.58047 
-4.24342 -2.16213 16 
4.24342 -2.16213 16 
4.25634 -2.13658 -1.57569 
-4.25634 -2.13658 1.57569 
-4.25635 -2.13656 -1.57569 
4.25635 -2.13656 1.57569 
-3.1195 -2.12186 -1.57569 
3.1195 -2.12186 -1.57569 
-3.1195 -2.12186 1.57569 
3.1195 -2.12186 1.57569 
-4.3159 -2.01355 -1.54547 
-4.31591 -2.01354 1.54546 
4.31601 -2.01332 -1.5454 
4.31606 -2.01322 1.54537 
-4.37074 -1.89156 -1.50351 
4.37074 -1.89156 -1.50351 
-4.37074 -1.89156 1.50351 
4.37074 -1.89156 1.50351 
-3.25842 -1.88125 -1.6 
3.25842 -1.88125 -1.6 
-3.25842 -1.88125 1.6 
3.25842 -1.88125 1.6 
4.42076 -1.77153 -1.45009 
4.42077 -1.77149 1.45007 
-4.42091 -1.77115 -1.4499 
-4.42093 -1.77109 1.44987 
-4.46584 -1.65459 -1.38564 
4.46584 -1.65459 -1.38564 
-4.46584 -1.65459 1.38564 
4.46584 -1.65459 1.38564 
-3.39734 -1.64064 -1.57569 
3.39734 -1.64064 -1.57569 
-3.39734 -1.64064 1.57569 
3.39734 -1.64064 1.57569 
-4.52941 -1.47169 -13.4 
4.52941 -1.47169 -13.4 
-4.52941 -1.47169 16 
4.52941 -1.47169 16 
-4.52999 -1.46989 -1.25534 
4.52999 -1.46989 -1.25534 
-4.52999 -1.46989 1.25534 
4.52999 -1.46989 1.25534 
-4.54136 -1.43439 -1.22567 
4.54136 -1.43439 -1.22567 
-4.54136 -1.43439 1.22567 
4.54136 -1.43439 1.22567 
-3.53204 -1.40733 -1.50351 
3.53204 -1.40733 -1.50351 
-3.53204 -1.40733 1.50351 
3.53204 -1.40733 1.50351 
-4.59835 -1.23958 -1.02846 
4.59835 -1.23958 -1.02846 
-4.59835 -1.23958 1.02846 
4.59835 -1.23958 1.02846 
-3.65842 -1.18843 -1.38564 
3.65842 -1.18843 -1.38564 
-3.65842 -1.18843 1.38564 
3.65842 -1.18843 1.38564 
-4.63884 -1.07823 -0.8 
4.63884 -1.07823 -0.8 
-4.63884 -1.07823 0.8 
4.63884 -1.07823 0.8 
4.6536 -1.01262 -0.676725 
4.65361 -1.01258 0.676637 
-4.65369 -1.01222 -0.675887 
-4.6537 -1.01218 0.675796 
-3.77265 -0.990577 -1.22567 
3.77265 -0.990577 -1.22567 
-3.77265 -0.990577 1.22567 
3.77265 -0.990577 1.22567 
-4.66528 -0.957397 -0.547232 
4.66528 -0.957397 -0.547232 
-4.66528 -0.957397 0.547232 
4.66528 -0.957397 0.547232 
-4.67395 -0.914121 0.414705 
-4.67395 -0.914118 -0.414693 
4.674 -0.913842 0.413702 
4.674 -0.913839 -0.413691 
-4.68001 -0.882553 -0.277837 
4.68001 -0.882553 -0.277837 
-4.68001 -0.882553 0.277837 
4.68001 -0.882553 0.277837 
-1.52637 -0.88125 0 
1.52637 -0.88125 0 
4.68354 -0.863615 -0.140047 
4.68354 -0.863613 0.140028 
-4.68356 -0.863516 -0.138961 
-4.68356 -0.863511 0.138914 
-4.68472 -0.857204 0 
4.68472 -0.857204 0 
-4.68472 -0.857204 1.95943e-16 
-3.87126 -0.819788 -1.02846 
3.87126 -0.819788 -1.02846 
-3.87126 -0.819788 1.02846 
3.87126 -0.819788 1.02846 
-4.70387 -0.745019 -13.4 
4.70387 -0.745019 -13.4 
-4.70387 -0.745019 16 
4.70387 -0.745019 16 
-3.95124 -0.68125 -0.8 
3.95124 -0.68125 -0.8 
-3.95124 -0.68125 0.8 
3.95124 -0.68125 0.8 
-4.01017 -0.579174 -0.547232 
4.01017 -0.579174 -0.547232 
-4.01017 -0.579174 0.547232 
4.01017 -0.579174 0.547232 
-4.04627 -0.51666 -0.277837 
4.04627 -0.51666 -0.277837 
-4.04627 -0.51666 0.277837 
4.04627 -0.51666 0.277837 
4.05842 -0.495609 -3.91887e-16 
4.05842 -0.495609 0 
-4.05842 -0.495609 1.95943e-16 
-4.05842 -0.495609 3.10862e-16 
4.7625 -1.16648e-15 16 
0 0 -13.4 
4.7625 0 -13.4 
0 0 16 
4.7625 0 16 
-4.7625 5.83238e-16 -13.4 
-4.7625 5.83238e-16 16 
-4.70387 0.745019 -13.4 
4.70387 0.745019 -13.4 
-4.70387 0.745019 16 
4.70387 0.745019 16 
-4.52941 1.47169 -13.4 
4.52941 1.47169 -13.4 
-4.52941 1.47169 16 
4.52941 1.47169 16 
3.67394e-16 1.7625 0 
-4.24342 2.16213 -13.4 
4.24342 2.16213 -13.4 
-4.24342 2.16213 16 
4.24342 2.16213 16 
-3.85294 2.79933 -13.4 
3.85294 2.79933 -13.4 
-3.85294 2.79933 16 
3.85294 2.79933 16 
-3.3676 3.3676 -13.4 
3.3676 3.3676 -13.4 
-3.3676 3.3676 16 
3.3676 3.3676 16 
3.44509e-16 3.7625 -1.6 
4.1638e-16 3.7625 -1.6 
-0.277837 3.7625 -1.57569 
0.277837 3.7625 -1.57569 
-0.547232 3.7625 -1.50351 
0.547232 3.7625 -1.50351 
-0.8 3.7625 -1.38564 
0.8 3.7625 -1.38564 
-1.02846 3.7625 -1.22567 
1.02846 3.7625 -1.22567 
-1.22567 3.7625 -1.02846 
1.22567 3.7625 -1.02846 
-1.38564 3.7625 -0.8 
1.38564 3.7625 -0.8 
-1.50351 3.7625 -0.547232 
1.50351 3.7625 -0.547232 
-1.57569 3.7625 -0.277837 
1.57569 3.7625 -0.277837 
-1.6 3.7625 -3.91887e-16 
-1.6 3.7625 0 
1.6 3.7625 1.95943e-16 
1.6 3.7625 3.10862e-16 
-1.57569 3.7625 0.277837 
1.57569 3.7625 0.277837 
-1.50351 3.7625 0.547232 
1.50351 3.7625 0.547232 
-1.38564 3.7625 0.8 
1.38564 3.7625 0.8 
-1.22567 3.7625 1.02846 
1.22567 3.7625 1.02846 
-1.02846 3.7625 1.22567 
1.02846 3.7625 1.22567 
-0.8 3.7625 1.38564 
0.8 3.7625 1.38564 
-0.547232 3.7625 1.50351 
0.547232 3.7625 1.50351 
-0.277837 3.7625 1.57569 
0.277837 3.7625 1.57569 
-9.95799e-17 3.7625 1.6 
2.44929e-17 3.7625 1.6 
-2.79933 3.85294 -13.4 
2.79933 3.85294 -13.4 
-2.79933 3.85294 16 
2.79933 3.85294 16 
-2.16213 4.24342 -13.4 
2.16213 4.24342 -13.4 
-2.16213 4.24342 16 
2.16213 4.24342 16 
-1.6 4.48569 0 
1.6 4.48569 1.95943e-16 
1.6 4.48569 4.33681e-16 
1.59396 4.48784 0.138914 
1.59395 4.48784 -0.138961 
-1.59386 4.48787 0.140028 
-1.59386 4.48787 -0.140047 
-1.57569 4.49429 -0.277837 
1.57569 4.49429 -0.277837 
-1.57569 4.49429 0.277837 
1.57569 4.49429 0.277837 
-1.54559 4.50472 -0.413691 
-1.54559 4.50473 0.413702 
1.54533 4.50482 -0.414693 
1.54532 4.50482 0.414705 
-1.50351 4.51895 -0.547232 
1.50351 4.51895 0.547232 
1.50347 4.51896 -0.547336 
-1.50347 4.51896 0.547336 
-1.47169 4.52941 -13.4 
1.47169 4.52941 -13.4 
-1.47169 4.52941 -0.627789 
1.47169 4.52941 -0.627789 
-1.47169 4.52941 0.627789 
1.47169 4.52941 0.627789 
-1.47169 4.52941 16 
1.47169 4.52941 16 
-1.38564 4.55647 -0.8 
1.38564 4.55647 -0.8 
-1.38564 4.55647 0.8 
1.38564 4.55647 0.8 
-1.22567 4.60208 -1.02846 
1.22567 4.60208 -1.02846 
-1.22567 4.60208 1.02846 
1.22567 4.60208 1.02846 
-1.02846 4.65013 -1.22567 
1.02846 4.65013 -1.22567 
-1.02846 4.65013 1.22567 
1.02846 4.65013 1.22567 
-0.8 4.69483 -1.38564 
0.8 4.69483 -1.38564 
-0.8 4.69483 1.38564 
0.8 4.69483 1.38564 
-0.745019 4.70387 -13.4 
0.745019 4.70387 -13.4 
-0.745019 4.70387 -1.41596 
0.745019 4.70387 -1.41596 
-0.745019 4.70387 1.41596 
0.745019 4.70387 1.41596 
-0.745019 4.70387 16 
0.745019 4.70387 16 
-0.547232 4.73096 -1.50351 
0.547232 4.73096 -1.50351 
-0.547232 4.73096 1.50351 
0.547232 4.73096 1.50351 
-0.414531 4.74442 1.54537 
-0.414422 4.74443 -1.5454 
0.414176 4.74446 1.54546 
0.414161 4.74446 -1.54547 
-0.277837 4.75439 -1.57569 
0.277837 4.75439 -1.57569 
-0.277837 4.75439 1.57569 
0.277837 4.75439 1.57569 
0.139719 4.76045 -1.59389 
-0.139502 4.76046 -1.59391 
-0.139442 4.76046 1.59391 
0.139437 4.76046 1.59391 
2.91619e-16 4.7625 -13.4 
2.91619e-16 4.7625 -1.6 
2.93915e-16 4.7625 -1.6 
2.573e-16 4.7625 1.6 
2.91619e-16 4.7625 1.6 
2.91619e-16 4.7625 16 
160 163 145 0 3 4 2 0
160 163 145 0 3 1 4 0
160 163 145 0 3 3 1 0
160 163 145 0 3 247 3 0
160 163 145 0 3 2 247 0
160 163 145 0 3 3 5 1
160 163 145 0 3 249 4 1
160 163 145 0 3 5 249 1
160 163 145 0 3 8 6 2
160 163 145 0 3 4 8 2
160 163 145 0 3 6 247 2
160 163 145 0 3 7 5 3
160 163 145 0 3 247 7 3
160 163 145 0 3 249 8 4
160 163 145 0 3 7 9 5
160 163 145 0 3 9 249 5
160 163 145 0 3 12 10 6
160 163 145 0 3 8 12 6
160 163 145 0 3 10 247 6
160 163 145 0 3 11 9 7
160 163 145 0 3 247 11 7
160 163 145 0 3 249 12 8
160 163 145 0 3 11 13 9
160 163 145 0 3 13 249 9
160 163 145 0 3 16 14 10
160 163 145 0 3 12 16 10
160 163 145 0 3 14 247 10
160 163 145 0 3 15 13 11
160 163 145 0 3 247 15 11
160 163 145 0 3 249 16 12
160 163 145 0 3 15 17 13
160 163 145 0 3 17 249 13
160 163 145 0 3 18 24 14
160 163 145 0 3 24 25 14
160 163 145 0 3 25 29 14
160 163 145 0 3 29 33 14
160 163 145 0 3 41 49 14
160 163 145 0 3 40 41 14
160 163 145 0 3 33 40 14
160 163 145 0 3 16 18 14
160 163 145 0 3 49 247 14
160 163 145 0 3 34 31 15
160 163 145 0 3 38 34 15
160 163 145 0 3 31 26 15
160 163 145 0 3 26 22 15
160 163 145 0 3 22 19 15
160 163 145 0 3 50 46 15
160 163 145 0 3 46 42 15
160 163 145 0 3 42 38 15
160 163 145 0 3 19 17 15
160 163 145 0 3 247 50 15
160 163 145 0 3 35 30 16
160 163 145 0 3 39 35 16
160 163 145 0 3 30 27 16
160 163 145 0 3 27 23 16
160 163 145 0 3 23 18 16
160 163 145 0 3 51 47 16
160 163 145 0 3 47 43 16
160 163 145 0 3 43 39 16
160 163 145 0 3 249 51 16
160 163 145 0 3 21 28 17
160 163 145 0 3 28 32 17
160 163 145 0 3 32 36 17
160 163 145 0 3 36 37 17
160 163 145 0 3 37 44 17
160 163 145 0 3 44 52 17
160 163 145 0 3 19 21 17
160 163 145 0 3 52 249 17
160 163 145 0 3 58 24 18
160 163 145 0 3 63 58 18
160 163 145 0 3 23 63 18
160 163 145 0 3 22 62 19
160 163 145 0 3 62 60 19
160 163 145 0 3 60 21 19
160 163 145 0 3 60 64 21
160 163 145 0 3 64 28 21
160 163 145 0 3 26 62 22
160 163 145 0 3 27 63 23
160 163 145 0 3 61 25 24
160 163 145 0 3 58 61 24
160 163 145 0 3 61 29 25
160 163 145 0 3 70 62 26
160 163 145 0 3 31 70 26
160 163 145 0 3 71 63 27
160 163 145 0 3 30 71 27
160 163 145 0 3 64 32 28
160 163 145 0 3 69 33 29
160 163 145 0 3 61 69 29
160 163 145 0 3 35 71 30
160 163 145 0 3 34 70 31
160 163 145 0 3 64 72 32
160 163 145 0 3 72 36 32
160 163 145 0 3 69 40 33
160 163 145 0 3 74 70 34
160 163 145 0 3 38 74 34
160 163 145 0 3 75 71 35
160 163 145 0 3 39 75 35
160 163 145 0 3 72 37 36
160 163 145 0 3 72 76 37
160 163 145 0 3 76 44 37
160 163 145 0 3 42 74 38
160 163 145 0 3 43 75 39
160 163 145 0 3 69 73 40
160 163 145 0 3 73 41 40
160 163 145 0 3 45 49 41
160 163 145 0 3 73 45 41
160 163 145 0 3 86 74 42
160 163 145 0 3 46 86 42
160 163 145 0 3 87 75 43
160 163 145 0 3 47 87 43
160 163 145 0 3 48 52 44
160 163 145 0 3 76 48 44
160 163 145 0 3 53 49 45
160 163 145 0 3 73 85 45
160 163 145 0 3 85 53 45
160 163 145 0 3 50 54 46
160 163 145 0 3 54 86 46
160 163 145 0 3 51 55 47
160 163 145 0 3 55 87 47
160 163 145 0 3 56 52 48
160 163 145 0 3 76 88 48
160 163 145 0 3 88 56 48
160 163 145 0 3 53 65 49
160 163 145 0 3 65 77 49
160 163 145 0 3 77 84 49
160 163 145 0 3 84 91 49
160 163 145 0 3 91 93 49
160 163 145 0 3 93 247 49
160 163 145 0 3 78 66 50
160 163 145 0 3 82 78 50
160 163 145 0 3 94 96 50
160 163 145 0 3 96 89 50
160 163 145 0 3 89 82 50
160 163 145 0 3 66 54 50
160 163 145 0 3 247 94 50
160 163 145 0 3 79 67 51
160 163 145 0 3 83 79 51
160 163 145 0 3 99 97 51
160 163 145 0 3 97 90 51
160 163 145 0 3 90 83 51
160 163 145 0 3 67 55 51
160 163 145 0 3 249 99 51
160 163 145 0 3 56 68 52
160 163 145 0 3 68 80 52
160 163 145 0 3 80 81 52
160 163 145 0 3 81 92 52
160 163 145 0 3 92 100 52
160 163 145 0 3 100 249 52
160 163 145 0 3 85 101 53
160 163 145 0 3 101 65 53
160 163 145 0 3 66 86 54
160 163 145 0 3 67 87 55
160 163 145 0 3 88 104 56
160 163 145 0 3 104 68 56
160 163 145 0 3 63 213 58
160 163 145 0 3 213 61 58
160 163 145 0 3 62 214 60
160 163 145 0 3 214 64 60
160 163 145 0 3 213 69 61
160 163 145 0 3 70 214 62
160 163 145 0 3 71 213 63
160 163 145 0 3 214 72 64
160 163 145 0 3 101 109 65
160 163 145 0 3 109 77 65
160 163 145 0 3 78 102 66
160 163 145 0 3 102 86 66
160 163 145 0 3 79 103 67
160 163 145 0 3 103 87 67
160 163 145 0 3 104 112 68
160 163 145 0 3 112 80 68
160 163 145 0 3 213 73 69
160 163 145 0 3 74 214 70
160 163 145 0 3 75 213 71
160 163 145 0 3 214 76 72
160 163 145 0 3 213 85 73
160 163 145 0 3 86 214 74
160 163 145 0 3 87 213 75
160 163 145 0 3 214 88 76
160 163 145 0 3 109 84 77
160 163 145 0 3 82 110 78
160 163 145 0 3 110 102 78
160 163 145 0 3 83 111 79
160 163 145 0 3 111 103 79
160 163 145 0 3 112 81 80
160 163 145 0 3 112 124 81
160 163 145 0 3 124 92 81
160 163 145 0 3 89 122 82
160 163 145 0 3 122 110 82
160 163 145 0 3 90 123 83
160 163 145 0 3 123 111 83
160 163 145 0 3 109 121 84
160 163 145 0 3 121 91 84
160 163 145 0 3 213 101 85
160 163 145 0 3 102 214 86
160 163 145 0 3 103 213 87
160 163 145 0 3 214 104 88
160 163 145 0 3 96 122 89
160 163 145 0 3 97 123 90
160 163 145 0 3 95 93 91
160 163 145 0 3 121 95 91
160 163 145 0 3 98 100 92
160 163 145 0 3 124 98 92
160 163 145 0 3 114 125 93
160 163 145 0 3 105 114 93
160 163 145 0 3 95 105 93
160 163 145 0 3 125 247 93
160 163 145 0 3 106 96 94
160 163 145 0 3 126 118 94
160 163 145 0 3 118 113 94
160 163 145 0 3 113 106 94
160 163 145 0 3 247 126 94
160 163 145 0 3 121 137 95
160 163 145 0 3 137 105 95
160 163 145 0 3 106 138 96
160 163 145 0 3 138 122 96
160 163 145 0 3 99 107 97
160 163 145 0 3 107 139 97
160 163 145 0 3 139 123 97
160 163 145 0 3 108 100 98
160 163 145 0 3 124 140 98
160 163 145 0 3 140 108 98
160 163 145 0 3 131 119 99
160 163 145 0 3 119 115 99
160 163 145 0 3 115 107 99
160 163 145 0 3 249 131 99
160 163 145 0 3 116 132 100
160 163 145 0 3 108 116 100
160 163 145 0 3 132 249 100
160 163 145 0 3 213 109 101
160 163 145 0 3 110 214 102
160 163 145 0 3 111 213 103
160 163 145 0 3 214 112 104
160 163 145 0 3 137 114 105
160 163 145 0 3 113 138 106
160 163 145 0 3 115 139 107
160 163 145 0 3 140 116 108
160 163 145 0 3 213 121 109
160 163 145 0 3 122 214 110
160 163 145 0 3 123 213 111
160 163 145 0 3 214 124 112
160 163 145 0 3 118 150 113
160 163 145 0 3 150 138 113
160 163 145 0 3 117 125 114
160 163 145 0 3 137 149 114
160 163 145 0 3 149 117 114
160 163 145 0 3 119 151 115
160 163 145 0 3 151 139 115
160 163 145 0 3 120 132 116
160 163 145 0 3 140 152 116
160 163 145 0 3 152 120 116
160 163 145 0 3 127 125 117
160 163 145 0 3 149 127 117
160 163 145 0 3 126 128 118
160 163 145 0 3 128 150 118
160 163 145 0 3 131 129 119
160 163 145 0 3 129 151 119
160 163 145 0 3 130 132 120
160 163 145 0 3 152 130 120
160 163 145 0 3 213 137 121
160 163 145 0 3 138 214 122
160 163 145 0 3 139 213 123
160 163 145 0 3 214 140 124
160 163 145 0 3 127 165 125
160 163 145 0 3 165 247 125
160 163 145 0 3 166 133 126
160 163 145 0 3 133 128 126
160 163 145 0 3 247 166 126
160 163 145 0 3 135 165 127
160 163 145 0 3 149 161 127
160 163 145 0 3 161 135 127
160 163 145 0 3 133 162 128
160 163 145 0 3 162 150 128
160 163 145 0 3 131 134 129
160 163 145 0 3 134 163 129
160 163 145 0 3 163 151 129
160 163 145 0 3 168 132 130
160 163 145 0 3 136 168 130
160 163 145 0 3 152 164 130
160 163 145 0 3 164 136 130
160 163 145 0 3 167 134 131
160 163 145 0 3 249 167 131
160 163 145 0 3 168 249 132
160 163 145 0 3 166 143 133
160 163 145 0 3 143 162 133
160 163 145 0 3 167 142 134
160 163 145 0 3 142 163 134
160 163 145 0 3 141 165 135
160 163 145 0 3 161 141 135
160 163 145 0 3 144 168 136
160 163 145 0 3 164 144 136
160 163 145 0 3 213 149 137
160 163 145 0 3 150 214 138
160 163 145 0 3 151 213 139
160 163 145 0 3 214 152 140
160 163 145 0 3 145 165 141
160 163 145 0 3 161 177 141
160 163 145 0 3 177 145 141
160 163 145 0 3 167 147 142
160 163 145 0 3 147 179 142
160 163 145 0 3 179 163 142
160 163 145 0 3 166 146 143
160 163 145 0 3 146 178 143
160 163 145 0 3 178 162 143
160 163 145 0 3 148 168 144
160 163 145 0 3 164 180 144
160 163 145 0 3 180 148 144
160 163 145 0 3 155 165 145
160 163 145 0 3 177 155 145
160 163 145 0 3 166 153 146
160 163 145 0 3 153 178 146
160 163 145 0 3 167 156 147
160 163 145 0 3 156 179 147
160 163 145 0 3 154 168 148
160 163 145 0 3 180 154 148
160 163 145 0 3 213 161 149
160 163 145 0 3 162 214 150
160 163 145 0 3 163 213 151
160 163 145 0 3 214 164 152
160 163 145 0 3 166 158 153
160 163 145 0 3 158 186 153
160 163 145 0 3 186 178 153
160 163 145 0 3 160 168 154
160 163 145 0 3 180 188 154
160 163 145 0 3 188 160 154
160 163 145 0 3 157 165 155
160 163 145 0 3 177 185 155
160 163 145 0 3 185 157 155
160 163 145 0 3 167 159 156
160 163 145 0 3 159 187 156
160 163 145 0 3 187 179 156
160 163 145 0 3 169 165 157
160 163 145 0 3 185 169 157
160 163 145 0 3 166 170 158
160 163 145 0 3 170 186 158
160 163 145 0 3 167 171 159
160 163 145 0 3 171 187 159
160 163 145 0 3 172 168 160
160 163 145 0 3 188 172 160
160 163 145 0 3 213 177 161
160 163 145 0 3 178 214 162
160 163 145 0 3 179 213 163
160 163 145 0 3 214 180 164
160 163 145 0 3 169 226 165
160 163 145 0 3 226 247 165
160 163 145 0 3 174 170 166
160 163 145 0 3 227 174 166
160 163 145 0 3 247 227 166
160 163 145 0 3 228 175 167
160 163 145 0 3 175 171 167
160 163 145 0 3 249 228 167
160 163 145 0 3 172 229 168
160 163 145 0 3 229 249 168
160 163 145 0 3 173 226 169
160 163 145 0 3 185 197 169
160 163 145 0 3 197 173 169
160 163 145 0 3 174 198 170
160 163 145 0 3 198 186 170
160 163 145 0 3 175 199 171
160 163 145 0 3 199 187 171
160 163 145 0 3 176 229 172
160 163 145 0 3 188 200 172
160 163 145 0 3 200 176 172
160 163 145 0 3 181 226 173
160 163 145 0 3 197 222 173
160 163 145 0 3 222 181 173
160 163 145 0 3 227 182 174
160 163 145 0 3 182 198 174
160 163 145 0 3 228 183 175
160 163 145 0 3 183 199 175
160 163 145 0 3 184 229 176
160 163 145 0 3 200 225 176
160 163 145 0 3 225 184 176
160 163 145 0 3 213 185 177
160 163 145 0 3 186 214 178
160 163 145 0 3 187 213 179
160 163 145 0 3 214 188 180
160 163 145 0 3 189 226 181
160 163 145 0 3 222 230 181
160 163 145 0 3 230 189 181
160 163 145 0 3 227 190 182
160 163 145 0 3 190 223 182
160 163 145 0 3 223 198 182
160 163 145 0 3 228 191 183
160 163 145 0 3 191 224 183
160 163 145 0 3 224 199 183
160 163 145 0 3 192 229 184
160 163 145 0 3 225 233 184
160 163 145 0 3 233 192 184
160 163 145 0 3 213 197 185
160 163 145 0 3 198 214 186
160 163 145 0 3 199 213 187
160 163 145 0 3 214 200 188
160 163 145 0 3 195 226 189
160 163 145 0 3 230 195 189
160 163 145 0 3 227 193 190
160 163 145 0 3 193 231 190
160 163 145 0 3 231 223 190
160 163 145 0 3 228 196 191
160 163 145 0 3 196 232 191
160 163 145 0 3 232 224 191
160 163 145 0 3 194 229 192
160 163 145 0 3 233 194 192
160 163 145 0 3 227 202 193
160 163 145 0 3 202 235 193
160 163 145 0 3 235 231 193
160 163 145 0 3 204 229 194
160 163 145 0 3 233 204 194
160 163 145 0 3 201 226 195
160 163 145 0 3 230 201 195
160 163 145 0 3 228 203 196
160 163 145 0 3 203 236 196
160 163 145 0 3 236 232 196
160 163 145 0 3 213 222 197
160 163 145 0 3 223 214 198
160 163 145 0 3 224 213 199
160 163 145 0 3 214 225 200
160 163 145 0 3 206 226 201
160 163 145 0 3 234 206 201
160 163 145 0 3 230 234 201
160 163 145 0 3 227 208 202
160 163 145 0 3 208 235 202
160 163 145 0 3 228 205 203
160 163 145 0 3 205 236 203
160 163 145 0 3 207 229 204
160 163 145 0 3 237 207 204
160 163 145 0 3 233 237 204
160 163 145 0 3 228 211 205
160 163 145 0 3 211 240 205
160 163 145 0 3 240 236 205
160 163 145 0 3 209 226 206
160 163 145 0 3 234 209 206
160 163 145 0 3 212 229 207
160 163 145 0 3 237 212 207
160 163 145 0 3 227 210 208
160 163 145 0 3 239 235 208
160 163 145 0 3 210 239 208
160 163 145 0 3 217 226 209
160 163 145 0 3 238 217 209
160 163 145 0 3 234 238 209
160 163 145 0 3 227 215 210
160 163 145 0 3 215 239 210
160 163 145 0 3 228 218 211
160 163 145 0 3 218 240 211
160 163 145 0 3 216 229 212
160 163 145 0 3 237 241 212
160 163 145 0 3 241 216 212
160 163 145 0 3 236 240 213
160 163 145 0 3 232 236 213
160 163 145 0 3 224 232 213
160 163 145 0 3 238 234 213
160 163 145 0 3 244 238 213
160 163 145 0 3 240 244 213
160 163 145 0 3 230 222 213
160 163 145 0 3 234 230 213
160 163 145 0 3 241 237 214
160 163 145 0 3 243 241 214
160 163 145 0 3 233 225 214
160 163 145 0 3 237 233 214
160 163 145 0 3 235 239 214
160 163 145 0 3 231 235 214
160 163 145 0 3 223 231 214
160 163 145 0 3 239 243 214
160 163 145 0 3 227 220 215
160 163 145 0 3 243 239 215
160 163 145 0 3 220 243 215
160 163 145 0 3 220 229 216
160 163 145 0 3 241 220 216
160 163 145 0 3 221 226 217
160 163 145 0 3 238 221 217
160 163 145 0 3 228 221 218
160 163 145 0 3 221 244 218
160 163 145 0 3 244 240 218
160 163 145 0 3 228 226 221
160 163 145 0 3 227 229 220
160 163 145 0 3 241 243 220
160 163 145 0 3 238 244 221
160 163 145 0 3 252 251 226
160 163 145 0 3 228 252 226
160 163 145 0 3 251 247 226
160 163 145 0 3 248 229 227
160 163 145 0 3 247 248 227
160 163 145 0 3 249 252 228
160 163 145 0 3 248 250 229
160 163 145 0 3 250 249 229
160 163 145 0 3 256 249 250
160 163 145 0 3 251 253 247
160 163 145 0 3 254 248 247
160 163 145 0 3 267 263 247
160 163 145 0 3 263 258 247
160 163 145 0 3 258 254 247
160 163 145 0 3 319 315 247
160 163 145 0 3 315 271 247
160 163 145 0 3 271 267 247
160 163 145 0 3 389 366 247
160 163 145 0 3 366 342 247
160 163 145 0 3 342 319 247
160 163 145 0 3 318 341 247
160 163 145 0 3 341 365 247
160 163 145 0 3 365 389 247
160 163 145 0 3 266 270 247
160 163 145 0 3 270 314 247
160 163 145 0 3 314 318 247
160 163 145 0 3 253 257 247
160 163 145 0 3 257 262 247
160 163 145 0 3 262 266 247
160 163 145 0 3 254 250 248
160 163 145 0 3 255 252 249
160 163 145 0 3 268 264 249
160 163 145 0 3 264 259 249
160 163 145 0 3 259 255 249
160 163 145 0 3 320 316 249
160 163 145 0 3 316 272 249
160 163 145 0 3 272 268 249
160 163 145 0 3 394 371 249
160 163 145 0 3 371 347 249
160 163 145 0 3 347 320 249
160 163 145 0 3 321 348 249
160 163 145 0 3 348 372 249
160 163 145 0 3 372 394 249
160 163 145 0 3 269 273 249
160 163 145 0 3 273 317 249
160 163 145 0 3 317 321 249
160 163 145 0 3 256 260 249
160 163 145 0 3 260 265 249
160 163 145 0 3 265 269 249
160 163 145 0 3 254 256 250
160 163 145 0 3 255 253 251
160 163 145 0 3 252 255 251
160 163 145 0 3 259 257 253
160 163 145 0 3 255 259 253
160 163 145 0 3 258 256 254
160 163 145 0 3 258 260 256
160 163 145 0 3 264 262 257
160 163 145 0 3 259 264 257
160 163 145 0 3 263 260 258
160 163 145 0 3 263 265 260
160 163 145 0 3 296 298 261
160 163 145 0 3 293 296 261
160 163 145 0 3 302 304 261
160 163 145 0 3 300 302 261
160 163 145 0 3 298 300 261
160 163 145 0 3 308 310 261
160 163 145 0 3 306 308 261
160 163 145 0 3 304 306 261
160 163 145 0 3 311 309 261
160 163 145 0 3 312 311 261
160 163 145 0 3 310 312 261
160 163 145 0 3 305 303 261
160 163 145 0 3 307 305 261
160 163 145 0 3 309 307 261
160 163 145 0 3 299 297 261
160 163 145 0 3 301 299 261
160 163 145 0 3 303 301 261
160 163 145 0 3 291 289 261
160 163 145 0 3 295 291 261
160 163 145 0 3 297 295 261
160 163 145 0 3 285 283 261
160 163 145 0 3 287 285 261
160 163 145 0 3 289 287 261
160 163 145 0 3 279 277 261
160 163 145 0 3 281 279 261
160 163 145 0 3 283 281 261
160 163 145 0 3 276 278 261
160 163 145 0 3 274 276 261
160 163 145 0 3 277 274 261
160 163 145 0 3 282 284 261
160 163 145 0 3 280 282 261
160 163 145 0 3 278 280 261
160 163 145 0 3 288 290 261
160 163 145 0 3 286 288 261
160 163 145 0 3 284 286 261
160 163 145 0 3 290 293 261
160 163 145 0 3 268 266 262
160 163 145 0 3 264 268 262
160 163 145 0 3 267 265 263
160 163 145 0 3 267 269 265
160 163 145 0 3 272 270 266
160 163 145 0 3 268 272 266
160 163 145 0 3 271 269 267
160 163 145 0 3 271 273 269
160 163 145 0 3 316 314 270
160 163 145 0 3 272 316 270
160 163 145 0 3 315 273 271
160 163 145 0 3 315 317 273
160 163 145 0 3 386 276 274
160 163 145 0 3 391 386 274
160 163 145 0 3 385 391 274
160 163 145 0 3 277 385 274
160 163 145 0 3 378 278 276
160 163 145 0 3 381 378 276
160 163 145 0 3 386 381 276
160 163 145 0 3 382 385 277
160 163 145 0 3 380 382 277
160 163 145 0 3 279 380 277
160 163 145 0 3 367 280 278
160 163 145 0 3 373 367 278
160 163 145 0 3 378 373 278
160 163 145 0 3 374 380 279
160 163 145 0 3 368 374 279
160 163 145 0 3 281 368 279
160 163 145 0 3 357 282 280
160 163 145 0 3 361 357 280
160 163 145 0 3 367 361 280
160 163 145 0 3 362 368 281
160 163 145 0 3 283 362 281
160 163 145 0 3 353 284 282
160 163 145 0 3 357 353 282
160 163 145 0 3 358 362 283
160 163 145 0 3 285 358 283
160 163 145 0 3 349 286 284
160 163 145 0 3 353 349 284
160 163 145 0 3 354 358 285
160 163 145 0 3 287 354 285
160 163 145 0 3 343 288 286
160 163 145 0 3 349 343 286
160 163 145 0 3 350 354 287
160 163 145 0 3 289 339 287
160 163 145 0 3 339 344 287
160 163 145 0 3 344 350 287
160 163 145 0 3 337 333 288
160 163 145 0 3 333 290 288
160 163 145 0 3 343 337 288
160 163 145 0 3 291 330 289
160 163 145 0 3 330 335 289
160 163 145 0 3 335 339 289
160 163 145 0 3 333 329 290
160 163 145 0 3 329 328 290
160 163 145 0 3 328 293 290
160 163 145 0 3 326 330 291
160 163 145 0 3 324 326 291
160 163 145 0 3 295 324 291
160 163 145 0 3 328 322 293
160 163 145 0 3 322 296 293
160 163 145 0 3 325 324 295
160 163 145 0 3 297 325 295
160 163 145 0 3 331 298 296
160 163 145 0 3 322 327 296
160 163 145 0 3 327 331 296
160 163 145 0 3 332 325 297
160 163 145 0 3 336 332 297
160 163 145 0 3 299 336 297
160 163 145 0 3 331 334 298
160 163 145 0 3 334 340 298
160 163 145 0 3 340 300 298
160 163 145 0 3 338 336 299
160 163 145 0 3 346 338 299
160 163 145 0 3 301 346 299
160 163 145 0 3 355 302 300
160 163 145 0 3 351 355 300
160 163 145 0 3 340 345 300
160 163 145 0 3 345 351 300
160 163 145 0 3 352 346 301
160 163 145 0 3 303 352 301
160 163 145 0 3 359 304 302
160 163 145 0 3 355 359 302
160 163 145 0 3 356 352 303
160 163 145 0 3 305 356 303
160 163 145 0 3 363 306 304
160 163 145 0 3 359 363 304
160 163 145 0 3 360 356 305
160 163 145 0 3 307 360 305
160 163 145 0 3 369 308 306
160 163 145 0 3 363 369 306
160 163 145 0 3 364 360 307
160 163 145 0 3 370 364 307
160 163 145 0 3 309 370 307
160 163 145 0 3 377 310 308
160 163 145 0 3 375 377 308
160 163 145 0 3 369 375 308
160 163 145 0 3 376 370 309
160 163 145 0 3 379 376 309
160 163 145 0 3 311 379 309
160 163 145 0 3 387 312 310
160 163 145 0 3 383 387 310
160 163 145 0 3 377 383 310
160 163 145 0 3 384 379 311
160 163 145 0 3 388 384 311
160 163 145 0 3 312 388 311
160 163 145 0 3 393 388 312
160 163 145 0 3 387 393 312
160 163 145 0 3 320 318 314
160 163 145 0 3 316 320 314
160 163 145 0 3 319 317 315
160 163 145 0 3 319 321 317
160 163 145 0 3 322 328 318
160 163 145 0 3 328 341 318
160 163 145 0 3 320 322 318
160 163 145 0 3 335 330 319
160 163 145 0 3 330 326 319
160 163 145 0 3 326 324 319
160 163 145 0 3 342 344 319
160 163 145 0 3 344 339 319
160 163 145 0 3 339 335 319
160 163 145 0 3 324 321 319
160 163 145 0 3 334 331 320
160 163 145 0 3 331 327 320
160 163 145 0 3 327 322 320
160 163 145 0 3 347 345 320
160 163 145 0 3 345 340 320
160 163 145 0 3 340 334 320
160 163 145 0 3 325 332 321
160 163 145 0 3 332 348 321
160 163 145 0 3 324 325 321
160 163 145 0 3 329 341 328
160 163 145 0 3 333 341 329
160 163 145 0 3 336 348 332
160 163 145 0 3 337 341 333
160 163 145 0 3 338 348 336
160 163 145 0 3 343 341 337
160 163 145 0 3 346 348 338
160 163 145 0 3 343 349 341
160 163 145 0 3 349 353 341
160 163 145 0 3 353 357 341
160 163 145 0 3 357 361 341
160 163 145 0 3 361 365 341
160 163 145 0 3 358 354 342
160 163 145 0 3 366 368 342
160 163 145 0 3 368 362 342
160 163 145 0 3 362 358 342
160 163 145 0 3 354 350 342
160 163 145 0 3 350 344 342
160 163 145 0 3 347 351 345
160 163 145 0 3 352 348 346
160 163 145 0 3 359 355 347
160 163 145 0 3 371 369 347
160 163 145 0 3 369 363 347
160 163 145 0 3 363 359 347
160 163 145 0 3 355 351 347
160 163 145 0 3 356 360 348
160 163 145 0 3 360 364 348
160 163 145 0 3 364 372 348
160 163 145 0 3 352 356 348
160 163 145 0 3 367 365 361
160 163 145 0 3 370 372 364
160 163 145 0 3 373 378 365
160 163 145 0 3 378 381 365
160 163 145 0 3 381 386 365
160 163 145 0 3 386 389 365
160 163 145 0 3 367 373 365
160 163 145 0 3 382 380 366
160 163 145 0 3 380 374 366
160 163 145 0 3 374 368 366
160 163 145 0 3 389 391 366
160 163 145 0 3 391 385 366
160 163 145 0 3 385 382 366
160 163 145 0 3 371 375 369
160 163 145 0 3 376 372 370
160 163 145 0 3 383 377 371
160 163 145 0 3 377 375 371
160 163 145 0 3 394 393 371
160 163 145 0 3 393 387 371
160 163 145 0 3 387 383 371
160 163 145 0 3 376 379 372
160 163 145 0 3 379 384 372
160 163 145 0 3 384 388 372
160 163 145 0 3 388 394 372
160 163 145 0 3 391 389 386
160 163 145 0 3 393 394 388
