ply
format ascii 1.0
comment SOLIDWORKS generated,length unit = millimeters
element vertex 592
property float x
property float y
property float z
element face 1130
property uchar red
property uchar green
property uchar blue
property uchar alpha
property list uchar int vertex_indices
end_header
-8.74857e-16 -4.7625 -13.4 
-8.74857e-16 -4.7625 16 
-0.745019 -4.70387 -13.4 
0.745019 -4.70387 -13.4 
-0.745019 -4.70387 16 
0.745019 -4.70387 16 
-1.34219 -4.56946 0 
1.34219 -4.56946 0 
1.34219 -4.56946 1.95943e-16 
1.34835 -4.56764 0.138914 
1.34835 -4.56764 -0.138961 
-1.34845 -4.56761 0.140028 
-1.34845 -4.56761 -0.140047 
-1.36691 -4.56212 -0.277837 
1.36691 -4.56212 -0.277837 
-1.36691 -4.56212 0.277837 
1.36691 -4.56212 0.277837 
-1.3974 -4.55288 -0.413691 
-1.3974 -4.55288 0.413702 
1.39767 -4.55279 -0.414693 
1.39767 -4.55279 0.414705 
-1.43981 -4.53964 -0.547232 
1.43981 -4.53964 0.547232 
1.43984 -4.53963 -0.547336 
-1.43984 -4.53963 0.547336 
-1.47169 -4.52941 -13.4 
1.47169 -4.52941 -13.4 
-1.47169 -4.52941 -0.627789 
1.47169 -4.52941 -0.627789 
-1.47169 -4.52941 0.627789 
1.47169 -4.52941 0.627789 
-1.47169 -4.52941 16 
1.47169 -4.52941 16 
-1.55722 -4.50072 -0.8 
1.55722 -4.50072 -0.8 
-1.55722 -4.50072 0.8 
1.55722 -4.50072 0.8 
-1.71345 -4.44359 -1.02846 
1.71345 -4.44359 -1.02846 
-1.71345 -4.44359 1.02846 
1.71345 -4.44359 1.02846 
-1.90123 -4.36655 -1.22567 
1.90123 -4.36655 -1.22567 
-1.90123 -4.36655 1.22567 
1.90123 -4.36655 1.22567 
-2.11234 -4.26842 -1.38564 
2.11234 -4.26842 -1.38564 
-2.11234 -4.26842 1.38564 
2.11234 -4.26842 1.38564 
-2.16213 -4.24342 -13.4 
2.16213 -4.24342 -13.4 
-2.16213 -4.24342 -1.41596 
2.16213 -4.24342 -1.41596 
-2.16213 -4.24342 1.41596 
2.16213 -4.24342 1.41596 
-2.16213 -4.24342 16 
2.16213 -4.24342 16 
-2.33807 -4.14908 -1.50351 
2.33807 -4.14908 -1.50351 
-2.33807 -4.14908 1.50351 
2.33807 -4.14908 1.50351 
-2.45334 -4.08198 1.54537 
-2.45343 -4.08192 -1.5454 
2.45365 -4.08179 1.54546 
2.45366 -4.08178 -1.54547 
-2.56978 -4.00969 -1.57569 
2.56978 -4.00969 -1.57569 
-2.56978 -4.00969 1.57569 
2.56978 -4.00969 1.57569 
-0.917115 -3.98438 -3.91887e-16 
-0.917115 -3.98438 0 
0.917115 -3.98438 1.95943e-16 
0.917115 -3.98438 3.10862e-16 
-0.93678 -3.9701 -0.277837 
0.93678 -3.9701 -0.277837 
-0.93678 -3.9701 0.277837 
0.93678 -3.9701 0.277837 
2.68509 -3.93341 -1.59389 
-2.68527 -3.93329 -1.59391 
-2.68532 -3.93325 1.59391 
2.68532 -3.93325 1.59391 
-0.995178 -3.92767 -0.547232 
0.995178 -3.92767 -0.547232 
-0.995178 -3.92767 0.547232 
0.995178 -3.92767 0.547232 
-1.09054 -3.85839 -0.8 
1.09054 -3.85839 -0.8 
-1.09054 -3.85839 0.8 
1.09054 -3.85839 0.8 
-2.79933 -3.85294 -13.4 
2.79933 -3.85294 -13.4 
-2.79933 -3.85294 -1.6 
2.79933 -3.85294 -1.6 
-2.79933 -3.85294 1.6 
2.79933 -3.85294 1.6 
-2.79933 -3.85294 16 
2.79933 -3.85294 16 
-2.91093 -3.76933 1.59391 
2.91094 -3.76933 1.59391 
2.91099 -3.76929 -1.59391 
-2.91116 -3.76916 -1.59389 
-1.21995 -3.76436 -1.02846 
1.21995 -3.76436 -1.02846 
-1.21995 -3.76436 1.02846 
1.21995 -3.76436 1.02846 
-3.01933 -3.68307 -1.57569 
3.01933 -3.68307 -1.57569 
-3.01933 -3.68307 1.57569 
3.01933 -3.68307 1.57569 
-1.3795 -3.64844 -1.22567 
1.3795 -3.64844 -1.22567 
-1.3795 -3.64844 1.22567 
1.3795 -3.64844 1.22567 
-3.12379 -3.59491 -1.54547 
-3.1238 -3.5949 1.54546 
3.12398 -3.59474 -1.5454 
3.12407 -3.59467 1.54537 
-1.56433 -3.51415 -1.38564 
1.56433 -3.51415 -1.38564 
-1.56433 -3.51415 1.38564 
1.56433 -3.51415 1.38564 
-3.22351 -3.50577 -1.50351 
3.22351 -3.50577 -1.50351 
-3.22351 -3.50577 1.50351 
3.22351 -3.50577 1.50351 
-3.3676 -3.3676 -13.4 
3.3676 -3.3676 -13.4 
-3.3676 -3.3676 -1.41596 
3.3676 -3.3676 -1.41596 
-3.3676 -3.3676 1.41596 
3.3676 -3.3676 1.41596 
-3.3676 -3.3676 16 
3.3676 -3.3676 16 
-1.76882 -3.36558 -1.50351 
1.76882 -3.36558 -1.50351 
-1.76882 -3.36558 1.50351 
1.76882 -3.36558 1.50351 
-3.40676 -3.32797 -1.38564 
3.40676 -3.32797 -1.38564 
-3.40676 -3.32797 1.38564 
3.40676 -3.32797 1.38564 
-1.98677 -3.20723 -1.57569 
1.98677 -3.20723 -1.57569 
-1.98677 -3.20723 1.57569 
1.98677 -3.20723 1.57569 
-3.56532 -3.15752 -1.22567 
3.56532 -3.15752 -1.22567 
-3.56532 -3.15752 1.22567 
3.56532 -3.15752 1.22567 
-2.21154 -3.04393 -1.6 
2.21154 -3.04393 -1.6 
-2.21154 -3.04393 1.6 
2.21154 -3.04393 1.6 
-3.69662 -3.00273 -1.02846 
3.69662 -3.00273 -1.02846 
-3.69662 -3.00273 1.02846 
3.69662 -3.00273 1.02846 
-2.43632 -2.88062 -1.57569 
2.43632 -2.88062 -1.57569 
-2.43632 -2.88062 1.57569 
2.43632 -2.88062 1.57569 
-3.79923 -2.8718 -0.8 
3.79923 -2.8718 -0.8 
-3.79923 -2.8718 0.8 
3.79923 -2.8718 0.8 
-3.85294 -2.79933 -13.4 
3.85294 -2.79933 -13.4 
-3.85294 -2.79933 -0.627789 
3.85294 -2.79933 -0.627789 
-3.85294 -2.79933 0.627789 
3.85294 -2.79933 0.627789 
-3.85294 -2.79933 16 
3.85294 -2.79933 16 
3.87251 -2.7722 0.547336 
-3.87251 -2.7722 -0.547336 
3.87253 -2.77216 -0.547232 
-3.87253 -2.77216 0.547232 
-3.89806 -2.73616 0.414705 
-3.89806 -2.73615 -0.414693 
3.89822 -2.73592 0.413702 
3.89822 -2.73592 -0.413691 
-2.65426 -2.72227 -1.50351 
2.65426 -2.72227 -1.50351 
-2.65426 -2.72227 1.50351 
2.65426 -2.72227 1.50351 
-3.91644 -2.70978 -0.277837 
3.91644 -2.70978 -0.277837 
-3.91644 -2.70978 0.277837 
3.91644 -2.70978 0.277837 
3.92737 -2.69392 -0.140047 
3.92737 -2.69392 0.140028 
-3.92742 -2.69384 -0.138961 
-3.92742 -2.69383 0.138914 
-3.93105 -2.68854 0 
3.93105 -2.68854 0 
-3.93105 -2.68854 1.95943e-16 
-2.85876 -2.5737 -1.38564 
2.85876 -2.5737 -1.38564 
-2.85876 -2.5737 1.38564 
2.85876 -2.5737 1.38564 
-3.04358 -2.43941 -1.22567 
3.04358 -2.43941 -1.22567 
-3.04358 -2.43941 1.22567 
3.04358 -2.43941 1.22567 
-3.20313 -2.32349 -1.02846 
3.20313 -2.32349 -1.02846 
-3.20313 -2.32349 1.02846 
3.20313 -2.32349 1.02846 
-3.33255 -2.22947 -0.8 
3.33255 -2.22947 -0.8 
-3.33255 -2.22947 0.8 
3.33255 -2.22947 0.8 
-4.24342 -2.16213 -13.4 
4.24342 -2.16213 -13.4 
-4.24342 -2.16213 16 
4.24342 -2.16213 16 
-3.42791 -2.16019 -0.547232 
3.42791 -2.16019 -0.547232 
-3.42791 -2.16019 0.547232 
3.42791 -2.16019 0.547232 
-3.4863 -2.11776 -0.277837 
3.4863 -2.11776 -0.277837 
-3.4863 -2.11776 0.277837 
3.4863 -2.11776 0.277837 
3.50597 -2.10347 -3.91887e-16 
3.50597 -2.10347 0 
-3.50597 -2.10347 1.95943e-16 
-3.50597 -2.10347 3.10862e-16 
-4.52941 -1.47169 -13.4 
4.52941 -1.47169 -13.4 
-4.52941 -1.47169 16 
4.52941 -1.47169 16 
-1.03597 -1.42589 0 
1.03597 -1.42589 0 
-4.70387 -0.745019 -13.4 
4.70387 -0.745019 -13.4 
-4.70387 -0.745019 16 
4.70387 -0.745019 16 
-4.07278 -0.359014 -3.91887e-16 
-4.07278 -0.359014 0 
4.07278 -0.359014 1.95943e-16 
4.07278 -0.359014 3.10862e-16 
-4.06527 -0.335896 -0.277837 
4.06527 -0.335896 -0.277837 
-4.06527 -0.335896 0.277837 
4.06527 -0.335896 0.277837 
-4.04296 -0.267245 -0.547232 
4.04296 -0.267245 -0.547232 
-4.04296 -0.267245 0.547232 
4.04296 -0.267245 0.547232 
-4.00654 -0.155146 -0.8 
4.00654 -0.155146 -0.8 
-4.00654 -0.155146 0.8 
4.00654 -0.155146 0.8 
-4.76057 -0.135536 0 
4.76057 -0.135536 1.95943e-16 
4.76057 -0.135536 4.33681e-16 
4.76075 -0.1291 -0.139192 
4.76075 -0.129085 0.139351 
-4.76075 -0.129022 0.140028 
-4.76075 -0.12902 -0.140047 
-4.76123 -0.109762 -0.277837 
4.76123 -0.109762 -0.277837 
-4.76123 -0.109762 0.277837 
4.76123 -0.109762 0.277837 
-4.76186 -0.0779103 -0.413691 
-4.76186 -0.0779073 0.413702 
4.76186 -0.0777626 -0.414213 
4.76187 -0.0776214 0.414711 
-4.76238 -0.0334903 -0.547232 
4.76238 -0.0334903 0.547232 
4.76238 -0.0334505 -0.547336 
-4.76238 -0.0334503 0.547336 
-3.9571 -0.00300605 -1.02846 
3.9571 -0.00300605 -1.02846 
-3.9571 -0.00300605 1.02846 
3.9571 -0.00300605 1.02846 
4.7625 -1.16648e-15 16 
4.7625 -2.1684e-16 -0.627789 
0 0 -13.4 
4.7625 0 -13.4 
4.7625 0 -0.627789 
4.7625 0 0.627789 
0 0 16 
4.7625 0 16 
-4.7625 2.1684e-16 0.627789 
4.7625 2.34817e-16 0.627789 
-4.7625 5.83238e-16 -13.4 
-4.7625 5.83238e-16 -0.627789 
-4.7625 5.83238e-16 0.627789 
-4.7625 5.83238e-16 16 
-4.7625 8.67362e-16 -0.627789 
-4.76165 0.0902037 -0.8 
4.76165 0.0902037 -0.8 
-4.76165 0.0902037 0.8 
4.76165 0.0902037 0.8 
-3.89616 0.184553 -1.22567 
3.89616 0.184553 -1.22567 
-3.89616 0.184553 1.22567 
3.89616 0.184553 1.22567 
-4.75559 0.256438 -1.02846 
4.75559 0.256438 -1.02846 
-4.75559 0.256438 1.02846 
4.75559 0.256438 1.02846 
-3.82556 0.401831 -1.38564 
3.82556 0.401831 -1.38564 
-3.82556 0.401831 1.38564 
3.82556 0.401831 1.38564 
-4.74035 0.458844 -1.22567 
4.74035 0.458844 -1.22567 
-4.74035 0.458844 1.22567 
4.74035 0.458844 1.22567 
-1.67624 0.544642 0 
1.67624 0.544642 0 
-3.74745 0.642228 -1.50351 
3.74745 0.642228 -1.50351 
-3.74745 0.642228 1.50351 
3.74745 0.642228 1.50351 
-4.71226 0.689936 -1.38564 
4.71226 0.689936 -1.38564 
-4.71226 0.689936 1.38564 
4.71226 0.689936 1.38564 
-4.70387 0.745019 -13.4 
4.70387 0.745019 -13.4 
-4.70387 0.745019 -1.41596 
4.70387 0.745019 -1.41596 
-4.70387 0.745019 1.41596 
4.70387 0.745019 1.41596 
-4.70387 0.745019 16 
4.70387 0.745019 16 
-3.66421 0.898438 -1.57569 
3.66421 0.898438 -1.57569 
-3.66421 0.898438 1.57569 
3.66421 0.898438 1.57569 
-4.66851 0.941497 -1.50351 
4.66851 0.941497 -1.50351 
-4.66851 0.941497 1.50351 
4.66851 0.941497 1.50351 
4.64033 1.0718 -1.54535 
-4.64031 1.07187 1.54537 
-4.64029 1.07197 -1.5454 
4.64014 1.07263 1.54558 
-3.57835 1.16268 -1.6 
3.57835 1.16268 -1.6 
-3.57835 1.16268 1.6 
3.57835 1.16268 1.6 
-4.60755 1.20495 -1.57569 
4.60755 1.20495 -1.57569 
-4.60755 1.20495 1.57569 
4.60755 1.20495 1.57569 
4.57073 1.33783 1.59386 
-4.57057 1.33839 -1.59391 
-4.57055 1.33844 1.59391 
4.57041 1.33895 -1.59396 
-3.49249 1.42692 -1.57569 
3.49249 1.42692 -1.57569 
-3.49249 1.42692 1.57569 
3.49249 1.42692 1.57569 
-4.52941 1.47169 -13.4 
4.52941 1.47169 -13.4 
-4.52941 1.47169 -1.6 
4.52941 1.47169 -1.6 
-4.52941 1.47169 1.6 
4.52941 1.47169 1.6 
-4.52941 1.47169 16 
4.52941 1.47169 16 
4.48451 1.60331 -1.59395 
-4.48438 1.60368 1.59391 
-4.48428 1.60394 -1.59389 
4.48422 1.60412 1.59387 
-3.40925 1.68313 -1.50351 
3.40925 1.68313 -1.50351 
-3.40925 1.68313 1.50351 
3.40925 1.68313 1.50351 
-4.43584 1.73343 -1.57569 
4.43584 1.73343 -1.57569 
-4.43584 1.73343 1.57569 
4.43584 1.73343 1.57569 
3.67394e-16 1.7625 0 
4.38446 1.85956 1.5456 
-4.38426 1.86001 -1.54547 
-4.38426 1.86002 1.54546 
4.38403 1.86056 -1.54531 
-3.33114 1.92352 -1.38564 
3.33114 1.92352 -1.38564 
-3.33114 1.92352 1.38564 
3.33114 1.92352 1.38564 
-4.3303 1.98239 -1.50351 
4.3303 1.98239 -1.50351 
-4.3303 1.98239 1.50351 
4.3303 1.98239 1.50351 
-3.26054 2.1408 -1.22567 
3.26054 2.1408 -1.22567 
-3.26054 2.1408 1.22567 
3.26054 2.1408 1.22567 
-4.24342 2.16213 -13.4 
4.24342 2.16213 -13.4 
-4.24342 2.16213 -1.41596 
4.24342 2.16213 -1.41596 
-4.24342 2.16213 1.41596 
4.24342 2.16213 1.41596 
-4.24342 2.16213 16 
4.24342 2.16213 16 
-4.21783 2.21163 -1.38564 
4.21783 2.21163 -1.38564 
-4.21783 2.21163 1.38564 
4.21783 2.21163 1.38564 
-3.1996 2.32836 -1.02846 
3.1996 2.32836 -1.02846 
-3.1996 2.32836 1.02846 
3.1996 2.32836 1.02846 
-4.10472 2.41509 -1.22567 
4.10472 2.41509 -1.22567 
-4.10472 2.41509 1.22567 
4.10472 2.41509 1.22567 
-3.15016 2.4805 -0.8 
3.15016 2.4805 -0.8 
-3.15016 2.4805 0.8 
3.15016 2.4805 0.8 
-3.99808 2.5878 -1.02846 
3.99808 2.5878 -1.02846 
-3.99808 2.5878 1.02846 
3.99808 2.5878 1.02846 
-3.11374 2.5926 -0.547232 
3.11374 2.5926 -0.547232 
-3.11374 2.5926 0.547232 
3.11374 2.5926 0.547232 
-3.09143 2.66125 -0.277837 
3.09143 2.66125 -0.277837 
-3.09143 2.66125 0.277837 
3.09143 2.66125 0.277837 
3.08392 2.68437 -3.91887e-16 
3.08392 2.68437 0 
-3.08392 2.68437 1.95943e-16 
-3.08392 2.68437 3.10862e-16 
-3.90527 2.72585 -0.8 
3.90527 2.72585 -0.8 
-3.90527 2.72585 0.8 
3.90527 2.72585 0.8 
-3.85294 2.79933 -13.4 
3.85294 2.79933 -13.4 
-3.85294 2.79933 -0.627789 
3.85294 2.79933 -0.627789 
-3.85294 2.79933 0.627789 
3.85294 2.79933 0.627789 
-3.85294 2.79933 16 
3.85294 2.79933 16 
-3.83319 2.82632 -0.547336 
3.83319 2.82632 0.547336 
3.83316 2.82635 -0.547232 
-3.83316 2.82635 0.547232 
-3.80681 2.86175 0.414705 
-3.8068 2.86176 -0.414693 
3.80672 2.86187 0.414193 
3.8067 2.8619 -0.414068 
-3.7874 2.88738 -0.277837 
3.7874 2.88738 -0.277837 
-3.7874 2.88738 0.277837 
3.7874 2.88738 0.277837 
3.77569 2.90269 -0.139955 
3.77567 2.90271 0.139616 
-3.77563 2.90276 -0.138961 
-3.77563 2.90276 0.138914 
3.77172 2.90784 -4.33681e-16 
-3.77172 2.90784 0 
3.77172 2.90784 0 
-3.77172 2.90784 1.95943e-16 
-3.3676 3.3676 -13.4 
3.3676 3.3676 -13.4 
-3.3676 3.3676 16 
3.3676 3.3676 16 
3.44509e-16 3.7625 -1.6 
4.1638e-16 3.7625 -1.6 
-0.277837 3.7625 -1.57569 
0.277837 3.7625 -1.57569 
-0.547232 3.7625 -1.50351 
0.547232 3.7625 -1.50351 
-0.8 3.7625 -1.38564 
0.8 3.7625 -1.38564 
-1.02846 3.7625 -1.22567 
1.02846 3.7625 -1.22567 
-1.22567 3.7625 -1.02846 
1.22567 3.7625 -1.02846 
-1.38564 3.7625 -0.8 
1.38564 3.7625 -0.8 
-1.50351 3.7625 -0.547232 
1.50351 3.7625 -0.547232 
-1.57569 3.7625 -0.277837 
1.57569 3.7625 -0.277837 
-1.6 3.7625 -3.91887e-16 
-1.6 3.7625 0 
1.6 3.7625 1.95943e-16 
1.6 3.7625 3.10862e-16 
-1.57569 3.7625 0.277837 
1.57569 3.7625 0.277837 
-1.50351 3.7625 0.547232 
1.50351 3.7625 0.547232 
-1.38564 3.7625 0.8 
1.38564 3.7625 0.8 
-1.22567 3.7625 1.02846 
1.22567 3.7625 1.02846 
-1.02846 3.7625 1.22567 
1.02846 3.7625 1.22567 
-0.8 3.7625 1.38564 
0.8 3.7625 1.38564 
-0.547232 3.7625 1.50351 
0.547232 3.7625 1.50351 
-0.277837 3.7625 1.57569 
0.277837 3.7625 1.57569 
-9.95799e-17 3.7625 1.6 
2.44929e-17 3.7625 1.6 
-2.79933 3.85294 -13.4 
2.79933 3.85294 -13.4 
-2.79933 3.85294 16 
2.79933 3.85294 16 
-2.16213 4.24342 -13.4 
2.16213 4.24342 -13.4 
-2.16213 4.24342 16 
2.16213 4.24342 16 
-1.6 4.48569 0 
1.6 4.48569 1.95943e-16 
1.6 4.48569 4.33681e-16 
1.59396 4.48784 0.138914 
1.59395 4.48784 -0.138961 
-1.59386 4.48787 0.140028 
-1.59386 4.48787 -0.140047 
-1.57569 4.49429 -0.277837 
1.57569 4.49429 -0.277837 
-1.57569 4.49429 0.277837 
1.57569 4.49429 0.277837 
-1.54559 4.50472 -0.413691 
-1.54559 4.50473 0.413702 
1.54533 4.50482 -0.414693 
1.54532 4.50482 0.414705 
-1.50351 4.51895 -0.547232 
1.50351 4.51895 0.547232 
1.50347 4.51896 -0.547336 
-1.50347 4.51896 0.547336 
-1.47169 4.52941 -13.4 
1.47169 4.52941 -13.4 
-1.47169 4.52941 -0.627789 
1.47169 4.52941 -0.627789 
-1.47169 4.52941 0.627789 
1.47169 4.52941 0.627789 
-1.47169 4.52941 16 
1.47169 4.52941 16 
-1.38564 4.55647 -0.8 
1.38564 4.55647 -0.8 
-1.38564 4.55647 0.8 
1.38564 4.55647 0.8 
-1.22567 4.60208 -1.02846 
1.22567 4.60208 -1.02846 
-1.22567 4.60208 1.02846 
1.22567 4.60208 1.02846 
-1.02846 4.65013 -1.22567 
1.02846 4.65013 -1.22567 
-1.02846 4.65013 1.22567 
1.02846 4.65013 1.22567 
-0.8 4.69483 -1.38564 
0.8 4.69483 -1.38564 
-0.8 4.69483 1.38564 
0.8 4.69483 1.38564 
-0.745019 4.70387 -13.4 
0.745019 4.70387 -13.4 
-0.745019 4.70387 -1.41596 
0.745019 4.70387 -1.41596 
-0.745019 4.70387 1.41596 
0.745019 4.70387 1.41596 
-0.745019 4.70387 16 
0.745019 4.70387 16 
-0.547232 4.73096 -1.50351 
0.547232 4.73096 -1.50351 
-0.547232 4.73096 1.50351 
0.547232 4.73096 1.50351 
-0.414531 4.74442 1.54537 
-0.414422 4.74443 -1.5454 
0.414176 4.74446 1.54546 
0.414161 4.74446 -1.54547 
-0.277837 4.75439 -1.57569 
0.277837 4.75439 -1.57569 
-0.277837 4.75439 1.57569 
0.277837 4.75439 1.57569 
0.139719 4.76045 -1.59389 
-0.139502 4.76046 -1.59391 
-0.139442 4.76046 1.59391 
0.139437 4.76046 1.59391 
2.91619e-16 4.7625 -13.4 
2.91619e-16 4.7625 -1.6 
2.93915e-16 4.7625 -1.6 
2.573e-16 4.7625 1.6 
2.91619e-16 4.7625 1.6 
2.91619e-16 4.7625 16 
160 163 145 0 3 4 2 0
160 163 145 0 3 1 4 0
160 163 145 0 3 3 1 0
160 163 145 0 3 279 3 0
160 163 145 0 3 2 279 0
160 163 145 0 3 3 5 1
160 163 145 0 3 283 4 1
160 163 145 0 3 5 283 1
160 163 145 0 3 6 12 2
160 163 145 0 3 12 25 2
160 163 145 0 3 4 6 2
160 163 145 0 3 25 279 2
160 163 145 0 3 19 14 3
160 163 145 0 3 14 10 3
160 163 145 0 3 10 7 3
160 163 145 0 3 26 28 3
160 163 145 0 3 28 23 3
160 163 145 0 3 23 19 3
160 163 145 0 3 7 5 3
160 163 145 0 3 279 26 3
160 163 145 0 3 18 15 4
160 163 145 0 3 15 11 4
160 163 145 0 3 11 6 4
160 163 145 0 3 31 29 4
160 163 145 0 3 29 24 4
160 163 145 0 3 24 18 4
160 163 145 0 3 283 31 4
160 163 145 0 3 9 16 5
160 163 145 0 3 16 32 5
160 163 145 0 3 7 9 5
160 163 145 0 3 32 283 5
160 163 145 0 3 70 12 6
160 163 145 0 3 75 70 6
160 163 145 0 3 11 75 6
160 163 145 0 3 10 74 7
160 163 145 0 3 74 71 7
160 163 145 0 3 71 9 7
160 163 145 0 3 71 76 9
160 163 145 0 3 76 16 9
160 163 145 0 3 14 74 10
160 163 145 0 3 15 75 11
160 163 145 0 3 13 25 12
160 163 145 0 3 73 13 12
160 163 145 0 3 70 73 12
160 163 145 0 3 17 25 13
160 163 145 0 3 73 17 13
160 163 145 0 3 82 74 14
160 163 145 0 3 19 82 14
160 163 145 0 3 83 75 15
160 163 145 0 3 18 83 15
160 163 145 0 3 20 32 16
160 163 145 0 3 76 20 16
160 163 145 0 3 21 25 17
160 163 145 0 3 81 21 17
160 163 145 0 3 73 81 17
160 163 145 0 3 24 83 18
160 163 145 0 3 23 82 19
160 163 145 0 3 22 32 20
160 163 145 0 3 76 84 20
160 163 145 0 3 84 22 20
160 163 145 0 3 27 25 21
160 163 145 0 3 81 27 21
160 163 145 0 3 30 32 22
160 163 145 0 3 84 30 22
160 163 145 0 3 86 82 23
160 163 145 0 3 28 86 23
160 163 145 0 3 87 83 24
160 163 145 0 3 29 87 24
160 163 145 0 3 27 33 25
160 163 145 0 3 33 37 25
160 163 145 0 3 37 41 25
160 163 145 0 3 41 45 25
160 163 145 0 3 45 49 25
160 163 145 0 3 49 279 25
160 163 145 0 3 42 38 26
160 163 145 0 3 50 52 26
160 163 145 0 3 52 46 26
160 163 145 0 3 46 42 26
160 163 145 0 3 38 34 26
160 163 145 0 3 34 28 26
160 163 145 0 3 279 50 26
160 163 145 0 3 81 85 27
160 163 145 0 3 85 33 27
160 163 145 0 3 34 86 28
160 163 145 0 3 31 35 29
160 163 145 0 3 35 87 29
160 163 145 0 3 36 32 30
160 163 145 0 3 84 88 30
160 163 145 0 3 88 36 30
160 163 145 0 3 43 39 31
160 163 145 0 3 55 53 31
160 163 145 0 3 53 47 31
160 163 145 0 3 47 43 31
160 163 145 0 3 39 35 31
160 163 145 0 3 283 55 31
160 163 145 0 3 40 44 32
160 163 145 0 3 44 48 32
160 163 145 0 3 48 56 32
160 163 145 0 3 36 40 32
160 163 145 0 3 56 283 32
160 163 145 0 3 85 101 33
160 163 145 0 3 101 37 33
160 163 145 0 3 38 86 34
160 163 145 0 3 39 87 35
160 163 145 0 3 88 104 36
160 163 145 0 3 104 40 36
160 163 145 0 3 101 109 37
160 163 145 0 3 109 41 37
160 163 145 0 3 42 102 38
160 163 145 0 3 102 86 38
160 163 145 0 3 43 103 39
160 163 145 0 3 103 87 39
160 163 145 0 3 104 112 40
160 163 145 0 3 112 44 40
160 163 145 0 3 109 117 41
160 163 145 0 3 117 45 41
160 163 145 0 3 46 110 42
160 163 145 0 3 110 102 42
160 163 145 0 3 47 111 43
160 163 145 0 3 111 103 43
160 163 145 0 3 112 120 44
160 163 145 0 3 120 48 44
160 163 145 0 3 51 49 45
160 163 145 0 3 117 51 45
160 163 145 0 3 52 118 46
160 163 145 0 3 118 110 46
160 163 145 0 3 53 119 47
160 163 145 0 3 119 111 47
160 163 145 0 3 54 56 48
160 163 145 0 3 120 54 48
160 163 145 0 3 57 62 49
160 163 145 0 3 62 65 49
160 163 145 0 3 65 78 49
160 163 145 0 3 78 89 49
160 163 145 0 3 51 57 49
160 163 145 0 3 89 279 49
160 163 145 0 3 66 64 50
160 163 145 0 3 64 58 50
160 163 145 0 3 58 52 50
160 163 145 0 3 90 92 50
160 163 145 0 3 92 77 50
160 163 145 0 3 77 66 50
160 163 145 0 3 279 90 50
160 163 145 0 3 117 133 51
160 163 145 0 3 133 57 51
160 163 145 0 3 58 134 52
160 163 145 0 3 134 118 52
160 163 145 0 3 55 59 53
160 163 145 0 3 59 135 53
160 163 145 0 3 135 119 53
160 163 145 0 3 60 56 54
160 163 145 0 3 120 136 54
160 163 145 0 3 136 60 54
160 163 145 0 3 67 61 55
160 163 145 0 3 61 59 55
160 163 145 0 3 95 93 55
160 163 145 0 3 93 79 55
160 163 145 0 3 79 67 55
160 163 145 0 3 283 95 55
160 163 145 0 3 60 63 56
160 163 145 0 3 63 68 56
160 163 145 0 3 68 80 56
160 163 145 0 3 80 96 56
160 163 145 0 3 96 283 56
160 163 145 0 3 133 62 57
160 163 145 0 3 64 134 58
160 163 145 0 3 61 135 59
160 163 145 0 3 136 63 60
160 163 145 0 3 67 143 61
160 163 145 0 3 143 135 61
160 163 145 0 3 133 141 62
160 163 145 0 3 141 65 62
160 163 145 0 3 136 144 63
160 163 145 0 3 144 68 63
160 163 145 0 3 66 142 64
160 163 145 0 3 142 134 64
160 163 145 0 3 141 78 65
160 163 145 0 3 77 142 66
160 163 145 0 3 79 143 67
160 163 145 0 3 144 80 68
160 163 145 0 3 75 232 70
160 163 145 0 3 232 73 70
160 163 145 0 3 74 233 71
160 163 145 0 3 233 76 71
160 163 145 0 3 232 81 73
160 163 145 0 3 82 233 74
160 163 145 0 3 83 232 75
160 163 145 0 3 233 84 76
160 163 145 0 3 92 150 77
160 163 145 0 3 150 142 77
160 163 145 0 3 91 89 78
160 163 145 0 3 141 149 78
160 163 145 0 3 149 91 78
160 163 145 0 3 93 151 79
160 163 145 0 3 151 143 79
160 163 145 0 3 94 96 80
160 163 145 0 3 144 152 80
160 163 145 0 3 152 94 80
160 163 145 0 3 232 85 81
160 163 145 0 3 86 233 82
160 163 145 0 3 87 232 83
160 163 145 0 3 233 88 84
160 163 145 0 3 232 101 85
160 163 145 0 3 102 233 86
160 163 145 0 3 103 232 87
160 163 145 0 3 233 104 88
160 163 145 0 3 91 125 89
160 163 145 0 3 125 279 89
160 163 145 0 3 126 99 90
160 163 145 0 3 99 92 90
160 163 145 0 3 279 126 90
160 163 145 0 3 100 125 91
160 163 145 0 3 149 100 91
160 163 145 0 3 99 150 92
160 163 145 0 3 95 97 93
160 163 145 0 3 97 151 93
160 163 145 0 3 132 96 94
160 163 145 0 3 98 132 94
160 163 145 0 3 152 98 94
160 163 145 0 3 131 97 95
160 163 145 0 3 283 131 95
160 163 145 0 3 132 283 96
160 163 145 0 3 131 107 97
160 163 145 0 3 107 159 97
160 163 145 0 3 159 151 97
160 163 145 0 3 108 132 98
160 163 145 0 3 152 160 98
160 163 145 0 3 160 108 98
160 163 145 0 3 126 106 99
160 163 145 0 3 106 158 99
160 163 145 0 3 158 150 99
160 163 145 0 3 105 125 100
160 163 145 0 3 149 157 100
160 163 145 0 3 157 105 100
160 163 145 0 3 232 109 101
160 163 145 0 3 110 233 102
160 163 145 0 3 111 232 103
160 163 145 0 3 233 112 104
160 163 145 0 3 113 125 105
160 163 145 0 3 157 113 105
160 163 145 0 3 126 115 106
160 163 145 0 3 115 158 106
160 163 145 0 3 131 114 107
160 163 145 0 3 114 159 107
160 163 145 0 3 116 132 108
160 163 145 0 3 160 116 108
160 163 145 0 3 232 117 109
160 163 145 0 3 118 233 110
160 163 145 0 3 119 232 111
160 163 145 0 3 233 120 112
160 163 145 0 3 121 125 113
160 163 145 0 3 157 181 113
160 163 145 0 3 181 121 113
160 163 145 0 3 131 123 114
160 163 145 0 3 123 183 114
160 163 145 0 3 183 159 114
160 163 145 0 3 126 122 115
160 163 145 0 3 122 182 115
160 163 145 0 3 182 158 115
160 163 145 0 3 124 132 116
160 163 145 0 3 160 184 116
160 163 145 0 3 184 124 116
160 163 145 0 3 232 133 117
160 163 145 0 3 134 233 118
160 163 145 0 3 135 232 119
160 163 145 0 3 233 136 120
160 163 145 0 3 127 125 121
160 163 145 0 3 181 127 121
160 163 145 0 3 126 128 122
160 163 145 0 3 128 182 122
160 163 145 0 3 131 129 123
160 163 145 0 3 129 183 123
160 163 145 0 3 130 132 124
160 163 145 0 3 184 130 124
160 163 145 0 3 127 165 125
160 163 145 0 3 165 279 125
160 163 145 0 3 166 138 126
160 163 145 0 3 138 128 126
160 163 145 0 3 279 166 126
160 163 145 0 3 137 165 127
160 163 145 0 3 181 196 127
160 163 145 0 3 196 137 127
160 163 145 0 3 138 197 128
160 163 145 0 3 197 182 128
160 163 145 0 3 131 139 129
160 163 145 0 3 139 198 129
160 163 145 0 3 198 183 129
160 163 145 0 3 172 132 130
160 163 145 0 3 140 172 130
160 163 145 0 3 184 199 130
160 163 145 0 3 199 140 130
160 163 145 0 3 171 139 131
160 163 145 0 3 283 171 131
160 163 145 0 3 172 283 132
160 163 145 0 3 232 141 133
160 163 145 0 3 142 233 134
160 163 145 0 3 143 232 135
160 163 145 0 3 233 144 136
160 163 145 0 3 145 165 137
160 163 145 0 3 196 200 137
160 163 145 0 3 200 145 137
160 163 145 0 3 166 146 138
160 163 145 0 3 146 197 138
160 163 145 0 3 171 147 139
160 163 145 0 3 147 198 139
160 163 145 0 3 148 172 140
160 163 145 0 3 199 203 140
160 163 145 0 3 203 148 140
160 163 145 0 3 232 149 141
160 163 145 0 3 150 233 142
160 163 145 0 3 151 232 143
160 163 145 0 3 233 152 144
160 163 145 0 3 153 165 145
160 163 145 0 3 200 204 145
160 163 145 0 3 204 153 145
160 163 145 0 3 166 154 146
160 163 145 0 3 154 201 146
160 163 145 0 3 201 197 146
160 163 145 0 3 171 155 147
160 163 145 0 3 155 202 147
160 163 145 0 3 202 198 147
160 163 145 0 3 156 172 148
160 163 145 0 3 203 207 148
160 163 145 0 3 207 156 148
160 163 145 0 3 232 157 149
160 163 145 0 3 158 233 150
160 163 145 0 3 159 232 151
160 163 145 0 3 233 160 152
160 163 145 0 3 161 165 153
160 163 145 0 3 204 208 153
160 163 145 0 3 208 161 153
160 163 145 0 3 166 162 154
160 163 145 0 3 162 205 154
160 163 145 0 3 205 201 154
160 163 145 0 3 171 163 155
160 163 145 0 3 163 206 155
160 163 145 0 3 206 202 155
160 163 145 0 3 164 172 156
160 163 145 0 3 207 211 156
160 163 145 0 3 211 164 156
160 163 145 0 3 232 181 157
160 163 145 0 3 182 233 158
160 163 145 0 3 183 232 159
160 163 145 0 3 233 184 160
160 163 145 0 3 167 165 161
160 163 145 0 3 208 167 161
160 163 145 0 3 166 168 162
160 163 145 0 3 168 209 162
160 163 145 0 3 209 205 162
160 163 145 0 3 171 169 163
160 163 145 0 3 169 210 163
160 163 145 0 3 210 206 163
160 163 145 0 3 170 172 164
160 163 145 0 3 211 170 164
160 163 145 0 3 167 212 165
160 163 145 0 3 212 279 165
160 163 145 0 3 180 175 166
160 163 145 0 3 213 189 166
160 163 145 0 3 189 186 166
160 163 145 0 3 186 180 166
160 163 145 0 3 175 168 166
160 163 145 0 3 279 213 166
160 163 145 0 3 174 212 167
160 163 145 0 3 208 174 167
160 163 145 0 3 175 217 168
160 163 145 0 3 217 209 168
160 163 145 0 3 171 176 169
160 163 145 0 3 176 218 169
160 163 145 0 3 218 210 169
160 163 145 0 3 215 172 170
160 163 145 0 3 173 215 170
160 163 145 0 3 211 173 170
160 163 145 0 3 214 187 171
160 163 145 0 3 187 177 171
160 163 145 0 3 177 176 171
160 163 145 0 3 283 214 171
160 163 145 0 3 215 283 172
160 163 145 0 3 179 215 173
160 163 145 0 3 219 179 173
160 163 145 0 3 211 219 173
160 163 145 0 3 178 212 174
160 163 145 0 3 216 178 174
160 163 145 0 3 208 216 174
160 163 145 0 3 180 217 175
160 163 145 0 3 177 218 176
160 163 145 0 3 187 222 177
160 163 145 0 3 222 218 177
160 163 145 0 3 185 212 178
160 163 145 0 3 216 185 178
160 163 145 0 3 188 215 179
160 163 145 0 3 219 188 179
160 163 145 0 3 221 217 180
160 163 145 0 3 186 221 180
160 163 145 0 3 232 196 181
160 163 145 0 3 197 233 182
160 163 145 0 3 198 232 183
160 163 145 0 3 233 199 184
160 163 145 0 3 191 212 185
160 163 145 0 3 220 191 185
160 163 145 0 3 216 220 185
160 163 145 0 3 189 221 186
160 163 145 0 3 214 192 187
160 163 145 0 3 192 222 187
160 163 145 0 3 190 215 188
160 163 145 0 3 219 223 188
160 163 145 0 3 223 190 188
160 163 145 0 3 213 194 189
160 163 145 0 3 224 221 189
160 163 145 0 3 194 224 189
160 163 145 0 3 194 215 190
160 163 145 0 3 223 194 190
160 163 145 0 3 195 212 191
160 163 145 0 3 220 195 191
160 163 145 0 3 214 195 192
160 163 145 0 3 195 227 192
160 163 145 0 3 227 222 192
160 163 145 0 3 214 212 195
160 163 145 0 3 213 215 194
160 163 145 0 3 223 224 194
160 163 145 0 3 220 227 195
160 163 145 0 3 232 200 196
160 163 145 0 3 201 233 197
160 163 145 0 3 202 232 198
160 163 145 0 3 233 203 199
160 163 145 0 3 232 204 200
160 163 145 0 3 205 233 201
160 163 145 0 3 206 232 202
160 163 145 0 3 233 207 203
160 163 145 0 3 232 208 204
160 163 145 0 3 209 233 205
160 163 145 0 3 210 232 206
160 163 145 0 3 233 211 207
160 163 145 0 3 232 216 208
160 163 145 0 3 217 233 209
160 163 145 0 3 218 232 210
160 163 145 0 3 233 219 211
160 163 145 0 3 230 228 212
160 163 145 0 3 214 230 212
160 163 145 0 3 228 279 212
160 163 145 0 3 229 215 213
160 163 145 0 3 279 229 213
160 163 145 0 3 283 230 214
160 163 145 0 3 229 231 215
160 163 145 0 3 231 283 215
160 163 145 0 3 232 220 216
160 163 145 0 3 221 233 217
160 163 145 0 3 222 232 218
160 163 145 0 3 233 223 219
160 163 145 0 3 232 227 220
160 163 145 0 3 224 233 221
160 163 145 0 3 227 232 222
160 163 145 0 3 233 224 223
160 163 145 0 3 236 234 228
160 163 145 0 3 230 236 228
160 163 145 0 3 234 279 228
160 163 145 0 3 235 231 229
160 163 145 0 3 279 235 229
160 163 145 0 3 283 236 230
160 163 145 0 3 235 237 231
160 163 145 0 3 237 283 231
160 163 145 0 3 254 260 234
160 163 145 0 3 260 287 234
160 163 145 0 3 236 254 234
160 163 145 0 3 287 279 234
160 163 145 0 3 267 262 235
160 163 145 0 3 262 257 235
160 163 145 0 3 257 256 235
160 163 145 0 3 280 278 235
160 163 145 0 3 278 271 235
160 163 145 0 3 271 267 235
160 163 145 0 3 256 237 235
160 163 145 0 3 279 280 235
160 163 145 0 3 266 263 236
160 163 145 0 3 263 259 236
160 163 145 0 3 259 254 236
160 163 145 0 3 290 289 236
160 163 145 0 3 289 272 236
160 163 145 0 3 272 266 236
160 163 145 0 3 283 290 236
160 163 145 0 3 258 264 237
160 163 145 0 3 264 284 237
160 163 145 0 3 256 258 237
160 163 145 0 3 284 283 237
160 163 145 0 3 242 260 238
160 163 145 0 3 260 254 238
160 163 145 0 3 254 244 238
160 163 145 0 3 244 312 238
160 163 145 0 3 312 242 238
160 163 145 0 3 256 243 241
160 163 145 0 3 258 256 241
160 163 145 0 3 245 258 241
160 163 145 0 3 243 313 241
160 163 145 0 3 313 245 241
160 163 145 0 3 246 265 242
160 163 145 0 3 265 261 242
160 163 145 0 3 261 260 242
160 163 145 0 3 312 246 242
160 163 145 0 3 257 262 243
160 163 145 0 3 262 247 243
160 163 145 0 3 256 257 243
160 163 145 0 3 247 313 243
160 163 145 0 3 263 248 244
160 163 145 0 3 254 259 244
160 163 145 0 3 259 263 244
160 163 145 0 3 248 312 244
160 163 145 0 3 264 258 245
160 163 145 0 3 268 264 245
160 163 145 0 3 249 268 245
160 163 145 0 3 313 249 245
160 163 145 0 3 269 265 246
160 163 145 0 3 291 269 246
160 163 145 0 3 250 291 246
160 163 145 0 3 312 250 246
160 163 145 0 3 271 251 247
160 163 145 0 3 262 267 247
160 163 145 0 3 267 271 247
160 163 145 0 3 251 313 247
160 163 145 0 3 263 266 248
160 163 145 0 3 266 272 248
160 163 145 0 3 272 252 248
160 163 145 0 3 252 312 248
160 163 145 0 3 270 268 249
160 163 145 0 3 282 270 249
160 163 145 0 3 253 282 249
160 163 145 0 3 313 253 249
160 163 145 0 3 292 291 250
160 163 145 0 3 273 292 250
160 163 145 0 3 312 273 250
160 163 145 0 3 271 278 251
160 163 145 0 3 278 293 251
160 163 145 0 3 293 301 251
160 163 145 0 3 301 274 251
160 163 145 0 3 274 313 251
160 163 145 0 3 302 275 252
160 163 145 0 3 294 302 252
160 163 145 0 3 272 289 252
160 163 145 0 3 289 294 252
160 163 145 0 3 275 312 252
160 163 145 0 3 295 282 253
160 163 145 0 3 276 295 253
160 163 145 0 3 313 276 253
160 163 145 0 3 261 287 260
160 163 145 0 3 265 287 261
160 163 145 0 3 268 284 264
160 163 145 0 3 269 287 265
160 163 145 0 3 270 284 268
160 163 145 0 3 291 287 269
160 163 145 0 3 282 284 270
160 163 145 0 3 300 292 273
160 163 145 0 3 296 300 273
160 163 145 0 3 312 296 273
160 163 145 0 3 301 309 274
160 163 145 0 3 309 297 274
160 163 145 0 3 297 313 274
160 163 145 0 3 310 298 275
160 163 145 0 3 302 310 275
160 163 145 0 3 298 312 275
160 163 145 0 3 303 295 276
160 163 145 0 3 299 303 276
160 163 145 0 3 313 299 276
160 163 145 0 3 329 283 284
160 163 145 0 3 287 322 279
160 163 145 0 3 323 280 279
160 163 145 0 3 440 396 279
160 163 145 0 3 396 359 279
160 163 145 0 3 359 323 279
160 163 145 0 3 516 512 279
160 163 145 0 3 512 468 279
160 163 145 0 3 468 440 279
160 163 145 0 3 586 563 279
160 163 145 0 3 563 539 279
160 163 145 0 3 539 516 279
160 163 145 0 3 515 538 279
160 163 145 0 3 538 562 279
160 163 145 0 3 562 586 279
160 163 145 0 3 439 467 279
160 163 145 0 3 467 511 279
160 163 145 0 3 511 515 279
160 163 145 0 3 322 358 279
160 163 145 0 3 358 395 279
160 163 145 0 3 395 439 279
160 163 145 0 3 309 301 280
160 163 145 0 3 323 325 280
160 163 145 0 3 325 319 280
160 163 145 0 3 319 309 280
160 163 145 0 3 301 293 280
160 163 145 0 3 293 278 280
160 163 145 0 3 328 290 283
160 163 145 0 3 445 401 283
160 163 145 0 3 401 364 283
160 163 145 0 3 364 328 283
160 163 145 0 3 517 513 283
160 163 145 0 3 513 469 283
160 163 145 0 3 469 445 283
160 163 145 0 3 591 568 283
160 163 145 0 3 568 544 283
160 163 145 0 3 544 517 283
160 163 145 0 3 518 545 283
160 163 145 0 3 545 569 283
160 163 145 0 3 569 591 283
160 163 145 0 3 446 470 283
160 163 145 0 3 470 514 283
160 163 145 0 3 514 518 283
160 163 145 0 3 329 365 283
160 163 145 0 3 365 402 283
160 163 145 0 3 402 446 283
160 163 145 0 3 303 311 284
160 163 145 0 3 311 321 284
160 163 145 0 3 321 329 284
160 163 145 0 3 282 295 284
160 163 145 0 3 295 303 284
160 163 145 0 3 291 292 287
160 163 145 0 3 292 300 287
160 163 145 0 3 300 308 287
160 163 145 0 3 308 318 287
160 163 145 0 3 318 322 287
160 163 145 0 3 290 294 289
160 163 145 0 3 310 302 290
160 163 145 0 3 328 326 290
160 163 145 0 3 326 320 290
160 163 145 0 3 320 310 290
160 163 145 0 3 302 294 290
160 163 145 0 3 308 300 296
160 163 145 0 3 304 308 296
160 163 145 0 3 312 304 296
160 163 145 0 3 309 319 297
160 163 145 0 3 319 305 297
160 163 145 0 3 305 313 297
160 163 145 0 3 320 306 298
160 163 145 0 3 310 320 298
160 163 145 0 3 306 312 298
160 163 145 0 3 311 303 299
160 163 145 0 3 307 311 299
160 163 145 0 3 313 307 299
160 163 145 0 3 318 308 304
160 163 145 0 3 324 318 304
160 163 145 0 3 314 324 304
160 163 145 0 3 312 314 304
160 163 145 0 3 319 325 305
160 163 145 0 3 325 315 305
160 163 145 0 3 315 313 305
160 163 145 0 3 326 316 306
160 163 145 0 3 320 326 306
160 163 145 0 3 316 312 306
160 163 145 0 3 321 311 307
160 163 145 0 3 327 321 307
160 163 145 0 3 317 327 307
160 163 145 0 3 313 317 307
160 163 145 0 3 316 332 312
160 163 145 0 3 356 372 312
160 163 145 0 3 344 356 312
160 163 145 0 3 332 344 312
160 163 145 0 3 393 409 312
160 163 145 0 3 385 393 312
160 163 145 0 3 372 385 312
160 163 145 0 3 425 429 312
160 163 145 0 3 417 425 312
160 163 145 0 3 409 417 312
160 163 145 0 3 427 423 312
160 163 145 0 3 434 427 312
160 163 145 0 3 429 434 312
160 163 145 0 3 407 391 312
160 163 145 0 3 415 407 312
160 163 145 0 3 423 415 312
160 163 145 0 3 370 354 312
160 163 145 0 3 383 370 312
160 163 145 0 3 391 383 312
160 163 145 0 3 330 314 312
160 163 145 0 3 342 330 312
160 163 145 0 3 354 342 312
160 163 145 0 3 430 426 313
160 163 145 0 3 432 430 313
160 163 145 0 3 410 394 313
160 163 145 0 3 418 410 313
160 163 145 0 3 426 418 313
160 163 145 0 3 373 357 313
160 163 145 0 3 386 373 313
160 163 145 0 3 394 386 313
160 163 145 0 3 333 317 313
160 163 145 0 3 345 333 313
160 163 145 0 3 357 345 313
160 163 145 0 3 315 331 313
160 163 145 0 3 355 371 313
160 163 145 0 3 343 355 313
160 163 145 0 3 331 343 313
160 163 145 0 3 392 408 313
160 163 145 0 3 384 392 313
160 163 145 0 3 371 384 313
160 163 145 0 3 424 428 313
160 163 145 0 3 416 424 313
160 163 145 0 3 408 416 313
160 163 145 0 3 428 432 313
160 163 145 0 3 334 324 314
160 163 145 0 3 340 334 314
160 163 145 0 3 330 340 314
160 163 145 0 3 338 331 315
160 163 145 0 3 325 335 315
160 163 145 0 3 335 338 315
160 163 145 0 3 339 332 316
160 163 145 0 3 336 339 316
160 163 145 0 3 326 336 316
160 163 145 0 3 337 327 317
160 163 145 0 3 341 337 317
160 163 145 0 3 333 341 317
160 163 145 0 3 324 322 318
160 163 145 0 3 327 329 321
160 163 145 0 3 334 340 322
160 163 145 0 3 340 346 322
160 163 145 0 3 346 351 322
160 163 145 0 3 351 358 322
160 163 145 0 3 324 334 322
160 163 145 0 3 347 338 323
160 163 145 0 3 338 335 323
160 163 145 0 3 335 325 323
160 163 145 0 3 359 361 323
160 163 145 0 3 361 353 323
160 163 145 0 3 353 347 323
160 163 145 0 3 328 336 326
160 163 145 0 3 337 329 327
160 163 145 0 3 348 339 328
160 163 145 0 3 339 336 328
160 163 145 0 3 364 362 328
160 163 145 0 3 362 352 328
160 163 145 0 3 352 348 328
160 163 145 0 3 337 341 329
160 163 145 0 3 341 349 329
160 163 145 0 3 349 350 329
160 163 145 0 3 350 365 329
160 163 145 0 3 346 340 330
160 163 145 0 3 351 346 330
160 163 145 0 3 342 351 330
160 163 145 0 3 353 343 331
160 163 145 0 3 338 347 331
160 163 145 0 3 347 353 331
160 163 145 0 3 352 344 332
160 163 145 0 3 348 352 332
160 163 145 0 3 339 348 332
160 163 145 0 3 349 341 333
160 163 145 0 3 350 349 333
160 163 145 0 3 345 350 333
160 163 145 0 3 360 351 342
160 163 145 0 3 368 360 342
160 163 145 0 3 354 368 342
160 163 145 0 3 366 355 343
160 163 145 0 3 353 361 343
160 163 145 0 3 361 366 343
160 163 145 0 3 367 356 344
160 163 145 0 3 362 367 344
160 163 145 0 3 352 362 344
160 163 145 0 3 363 350 345
160 163 145 0 3 369 363 345
160 163 145 0 3 357 369 345
160 163 145 0 3 363 365 350
160 163 145 0 3 360 358 351
160 163 145 0 3 374 368 354
160 163 145 0 3 380 374 354
160 163 145 0 3 370 380 354
160 163 145 0 3 382 371 355
160 163 145 0 3 366 375 355
160 163 145 0 3 375 382 355
160 163 145 0 3 381 372 356
160 163 145 0 3 376 381 356
160 163 145 0 3 367 376 356
160 163 145 0 3 377 369 357
160 163 145 0 3 379 377 357
160 163 145 0 3 373 379 357
160 163 145 0 3 360 395 358
160 163 145 0 3 396 366 359
160 163 145 0 3 366 361 359
160 163 145 0 3 368 395 360
160 163 145 0 3 364 367 362
160 163 145 0 3 402 365 363
160 163 145 0 3 369 402 363
160 163 145 0 3 401 367 364
160 163 145 0 3 396 375 366
160 163 145 0 3 401 376 367
160 163 145 0 3 374 395 368
160 163 145 0 3 377 402 369
160 163 145 0 3 387 380 370
160 163 145 0 3 397 387 370
160 163 145 0 3 383 397 370
160 163 145 0 3 398 384 371
160 163 145 0 3 382 388 371
160 163 145 0 3 388 398 371
160 163 145 0 3 399 385 372
160 163 145 0 3 389 399 372
160 163 145 0 3 381 389 372
160 163 145 0 3 390 379 373
160 163 145 0 3 400 390 373
160 163 145 0 3 386 400 373
160 163 145 0 3 380 395 374
160 163 145 0 3 396 382 375
160 163 145 0 3 401 381 376
160 163 145 0 3 379 402 377
160 163 145 0 3 493 495 378
160 163 145 0 3 490 493 378
160 163 145 0 3 499 501 378
160 163 145 0 3 497 499 378
160 163 145 0 3 495 497 378
160 163 145 0 3 505 507 378
160 163 145 0 3 503 505 378
160 163 145 0 3 501 503 378
160 163 145 0 3 508 506 378
160 163 145 0 3 509 508 378
160 163 145 0 3 507 509 378
160 163 145 0 3 502 500 378
160 163 145 0 3 504 502 378
160 163 145 0 3 506 504 378
160 163 145 0 3 496 494 378
160 163 145 0 3 498 496 378
160 163 145 0 3 500 498 378
160 163 145 0 3 488 486 378
160 163 145 0 3 492 488 378
160 163 145 0 3 494 492 378
160 163 145 0 3 482 480 378
160 163 145 0 3 484 482 378
160 163 145 0 3 486 484 378
160 163 145 0 3 476 474 378
160 163 145 0 3 478 476 378
160 163 145 0 3 480 478 378
160 163 145 0 3 473 475 378
160 163 145 0 3 471 473 378
160 163 145 0 3 474 471 378
160 163 145 0 3 479 481 378
160 163 145 0 3 477 479 378
160 163 145 0 3 475 477 378
160 163 145 0 3 485 487 378
160 163 145 0 3 483 485 378
160 163 145 0 3 481 483 378
160 163 145 0 3 487 490 378
160 163 145 0 3 390 402 379
160 163 145 0 3 387 395 380
160 163 145 0 3 401 389 381
160 163 145 0 3 396 388 382
160 163 145 0 3 403 397 383
160 163 145 0 3 391 403 383
160 163 145 0 3 412 392 384
160 163 145 0 3 398 404 384
160 163 145 0 3 404 412 384
160 163 145 0 3 413 393 385
160 163 145 0 3 405 413 385
160 163 145 0 3 399 405 385
160 163 145 0 3 406 400 386
160 163 145 0 3 394 406 386
160 163 145 0 3 397 395 387
160 163 145 0 3 396 398 388
160 163 145 0 3 401 399 389
160 163 145 0 3 400 402 390
160 163 145 0 3 411 403 391
160 163 145 0 3 407 411 391
160 163 145 0 3 412 420 392
160 163 145 0 3 420 408 392
160 163 145 0 3 421 409 393
160 163 145 0 3 413 421 393
160 163 145 0 3 414 406 394
160 163 145 0 3 410 414 394
160 163 145 0 3 397 439 395
160 163 145 0 3 440 404 396
160 163 145 0 3 404 398 396
160 163 145 0 3 403 439 397
160 163 145 0 3 401 405 399
160 163 145 0 3 446 402 400
160 163 145 0 3 406 446 400
160 163 145 0 3 445 405 401
160 163 145 0 3 411 439 403
160 163 145 0 3 440 412 404
160 163 145 0 3 445 413 405
160 163 145 0 3 414 446 406
160 163 145 0 3 419 411 407
160 163 145 0 3 415 419 407
160 163 145 0 3 420 436 408
160 163 145 0 3 436 416 408
160 163 145 0 3 437 417 409
160 163 145 0 3 421 437 409
160 163 145 0 3 422 414 410
160 163 145 0 3 418 422 410
160 163 145 0 3 419 439 411
160 163 145 0 3 440 420 412
160 163 145 0 3 445 421 413
160 163 145 0 3 422 446 414
160 163 145 0 3 435 419 415
160 163 145 0 3 423 447 415
160 163 145 0 3 447 441 415
160 163 145 0 3 441 435 415
160 163 145 0 3 436 442 416
160 163 145 0 3 442 424 416
160 163 145 0 3 443 425 417
160 163 145 0 3 437 443 417
160 163 145 0 3 438 422 418
160 163 145 0 3 426 448 418
160 163 145 0 3 448 444 418
160 163 145 0 3 444 438 418
160 163 145 0 3 435 439 419
160 163 145 0 3 440 436 420
160 163 145 0 3 445 437 421
160 163 145 0 3 438 446 422
160 163 145 0 3 427 455 423
160 163 145 0 3 455 452 423
160 163 145 0 3 452 447 423
160 163 145 0 3 454 428 424
160 163 145 0 3 442 449 424
160 163 145 0 3 449 454 424
160 163 145 0 3 451 429 425
160 163 145 0 3 450 451 425
160 163 145 0 3 443 450 425
160 163 145 0 3 430 458 426
160 163 145 0 3 458 453 426
160 163 145 0 3 453 448 426
160 163 145 0 3 461 455 427
160 163 145 0 3 466 461 427
160 163 145 0 3 434 466 427
160 163 145 0 3 459 432 428
160 163 145 0 3 454 456 428
160 163 145 0 3 456 459 428
160 163 145 0 3 462 434 429
160 163 145 0 3 457 462 429
160 163 145 0 3 451 457 429
160 163 145 0 3 432 463 430
160 163 145 0 3 463 460 430
160 163 145 0 3 460 458 430
160 163 145 0 3 459 463 432
160 163 145 0 3 462 466 434
160 163 145 0 3 441 439 435
160 163 145 0 3 440 442 436
160 163 145 0 3 445 443 437
160 163 145 0 3 444 446 438
160 163 145 0 3 441 467 439
160 163 145 0 3 454 449 440
160 163 145 0 3 449 442 440
160 163 145 0 3 468 459 440
160 163 145 0 3 459 456 440
160 163 145 0 3 456 454 440
160 163 145 0 3 447 467 441
160 163 145 0 3 445 450 443
160 163 145 0 3 470 446 444
160 163 145 0 3 448 470 444
160 163 145 0 3 469 457 445
160 163 145 0 3 457 451 445
160 163 145 0 3 451 450 445
160 163 145 0 3 452 467 447
160 163 145 0 3 453 470 448
160 163 145 0 3 455 467 452
160 163 145 0 3 458 470 453
160 163 145 0 3 461 467 455
160 163 145 0 3 469 462 457
160 163 145 0 3 460 470 458
160 163 145 0 3 468 463 459
160 163 145 0 3 463 470 460
160 163 145 0 3 466 467 461
160 163 145 0 3 469 466 462
160 163 145 0 3 468 470 463
160 163 145 0 3 469 467 466
160 163 145 0 3 513 511 467
160 163 145 0 3 469 513 467
160 163 145 0 3 512 470 468
160 163 145 0 3 512 514 470
160 163 145 0 3 583 473 471
160 163 145 0 3 587 583 471
160 163 145 0 3 582 587 471
160 163 145 0 3 474 582 471
160 163 145 0 3 575 475 473
160 163 145 0 3 578 575 473
160 163 145 0 3 583 578 473
160 163 145 0 3 579 582 474
160 163 145 0 3 577 579 474
160 163 145 0 3 476 577 474
160 163 145 0 3 564 477 475
160 163 145 0 3 570 564 475
160 163 145 0 3 575 570 475
160 163 145 0 3 571 577 476
160 163 145 0 3 565 571 476
160 163 145 0 3 478 565 476
160 163 145 0 3 554 479 477
160 163 145 0 3 558 554 477
160 163 145 0 3 564 558 477
160 163 145 0 3 559 565 478
160 163 145 0 3 480 559 478
160 163 145 0 3 550 481 479
160 163 145 0 3 554 550 479
160 163 145 0 3 555 559 480
160 163 145 0 3 482 555 480
160 163 145 0 3 546 483 481
160 163 145 0 3 550 546 481
160 163 145 0 3 551 555 482
160 163 145 0 3 484 551 482
160 163 145 0 3 540 485 483
160 163 145 0 3 546 540 483
160 163 145 0 3 547 551 484
160 163 145 0 3 486 536 484
160 163 145 0 3 536 541 484
160 163 145 0 3 541 547 484
160 163 145 0 3 534 530 485
160 163 145 0 3 530 487 485
160 163 145 0 3 540 534 485
160 163 145 0 3 488 527 486
160 163 145 0 3 527 532 486
160 163 145 0 3 532 536 486
160 163 145 0 3 530 526 487
160 163 145 0 3 526 525 487
160 163 145 0 3 525 490 487
160 163 145 0 3 523 527 488
160 163 145 0 3 521 523 488
160 163 145 0 3 492 521 488
160 163 145 0 3 525 519 490
160 163 145 0 3 519 493 490
160 163 145 0 3 522 521 492
160 163 145 0 3 494 522 492
160 163 145 0 3 528 495 493
160 163 145 0 3 519 524 493
160 163 145 0 3 524 528 493
160 163 145 0 3 529 522 494
160 163 145 0 3 533 529 494
160 163 145 0 3 496 533 494
160 163 145 0 3 528 531 495
160 163 145 0 3 531 537 495
160 163 145 0 3 537 497 495
160 163 145 0 3 535 533 496
160 163 145 0 3 543 535 496
160 163 145 0 3 498 543 496
160 163 145 0 3 552 499 497
160 163 145 0 3 548 552 497
160 163 145 0 3 537 542 497
160 163 145 0 3 542 548 497
160 163 145 0 3 549 543 498
160 163 145 0 3 500 549 498
160 163 145 0 3 556 501 499
160 163 145 0 3 552 556 499
160 163 145 0 3 553 549 500
160 163 145 0 3 502 553 500
160 163 145 0 3 560 503 501
160 163 145 0 3 556 560 501
160 163 145 0 3 557 553 502
160 163 145 0 3 504 557 502
160 163 145 0 3 566 505 503
160 163 145 0 3 560 566 503
160 163 145 0 3 561 557 504
160 163 145 0 3 567 561 504
160 163 145 0 3 506 567 504
160 163 145 0 3 574 507 505
160 163 145 0 3 572 574 505
160 163 145 0 3 566 572 505
160 163 145 0 3 573 567 506
160 163 145 0 3 576 573 506
160 163 145 0 3 508 576 506
160 163 145 0 3 584 509 507
160 163 145 0 3 580 584 507
160 163 145 0 3 574 580 507
160 163 145 0 3 581 576 508
160 163 145 0 3 585 581 508
160 163 145 0 3 509 585 508
160 163 145 0 3 590 585 509
160 163 145 0 3 584 590 509
160 163 145 0 3 517 515 511
160 163 145 0 3 513 517 511
160 163 145 0 3 516 514 512
160 163 145 0 3 516 518 514
160 163 145 0 3 519 525 515
160 163 145 0 3 525 538 515
160 163 145 0 3 517 519 515
160 163 145 0 3 532 527 516
160 163 145 0 3 527 523 516
160 163 145 0 3 523 521 516
160 163 145 0 3 539 541 516
160 163 145 0 3 541 536 516
160 163 145 0 3 536 532 516
160 163 145 0 3 521 518 516
160 163 145 0 3 531 528 517
160 163 145 0 3 528 524 517
160 163 145 0 3 524 519 517
160 163 145 0 3 544 542 517
160 163 145 0 3 542 537 517
160 163 145 0 3 537 531 517
160 163 145 0 3 522 529 518
160 163 145 0 3 529 545 518
160 163 145 0 3 521 522 518
160 163 145 0 3 526 538 525
160 163 145 0 3 530 538 526
160 163 145 0 3 533 545 529
160 163 145 0 3 534 538 530
160 163 145 0 3 535 545 533
160 163 145 0 3 540 538 534
160 163 145 0 3 543 545 535
160 163 145 0 3 540 546 538
160 163 145 0 3 546 550 538
160 163 145 0 3 550 554 538
160 163 145 0 3 554 558 538
160 163 145 0 3 558 562 538
160 163 145 0 3 555 551 539
160 163 145 0 3 563 565 539
160 163 145 0 3 565 559 539
160 163 145 0 3 559 555 539
160 163 145 0 3 551 547 539
160 163 145 0 3 547 541 539
160 163 145 0 3 544 548 542
160 163 145 0 3 549 545 543
160 163 145 0 3 556 552 544
160 163 145 0 3 568 566 544
160 163 145 0 3 566 560 544
160 163 145 0 3 560 556 544
160 163 145 0 3 552 548 544
160 163 145 0 3 553 557 545
160 163 145 0 3 557 561 545
160 163 145 0 3 561 569 545
160 163 145 0 3 549 553 545
160 163 145 0 3 564 562 558
160 163 145 0 3 567 569 561
160 163 145 0 3 570 575 562
160 163 145 0 3 575 578 562
160 163 145 0 3 578 583 562
160 163 145 0 3 583 586 562
160 163 145 0 3 564 570 562
160 163 145 0 3 579 577 563
160 163 145 0 3 577 571 563
160 163 145 0 3 571 565 563
160 163 145 0 3 586 587 563
160 163 145 0 3 587 582 563
160 163 145 0 3 582 579 563
160 163 145 0 3 568 572 566
160 163 145 0 3 573 569 567
160 163 145 0 3 580 574 568
160 163 145 0 3 574 572 568
160 163 145 0 3 591 590 568
160 163 145 0 3 590 584 568
160 163 145 0 3 584 580 568
160 163 145 0 3 573 576 569
160 163 145 0 3 576 581 569
160 163 145 0 3 581 585 569
160 163 145 0 3 585 591 569
160 163 145 0 3 587 586 583
160 163 145 0 3 590 591 585
