ply
format ascii 1.0
comment SOLIDWORKS generated,length unit = millimeters
element vertex 348
property float x
property float y
property float z
element face 674
property uchar red
property uchar green
property uchar blue
property uchar alpha
property list uchar int vertex_indices
end_header
0.247438 -8.34633 -11.3 
0.247438 -8.34633 1 
-0.741446 -8.31702 -11.3 
-0.741446 -8.31702 1 
1.23285 -8.25848 -11.3 
1.23285 -8.25848 1 
-1.71992 -8.17095 -11.3 
-1.71992 -8.17095 1 
2.20095 -8.05471 -11.3 
2.20095 -8.05471 1 
-2.67425 -7.91018 -11.3 
-2.67425 -7.91018 1 
3.13816 -7.73786 -11.3 
3.13816 -7.73786 1 
-3.59104 -7.53836 -11.3 
-3.59104 -7.53836 1 
4.03131 -7.31239 -11.3 
4.03131 -7.31239 1 
-4.45743 -7.06073 -11.3 
-4.45743 -7.06073 1 
4.86788 -6.78427 -11.3 
4.86788 -6.78427 1 
-5.26123 -6.48397 -11.3 
-5.26123 -6.48397 1 
5.63611 -6.16091 -11.3 
5.63611 -6.16091 1 
-5.99119 -5.8162 -11.3 
-5.99119 -5.8162 1 
6.32522 -5.45106 -11.3 
6.32522 -5.45106 1 
-6.63703 -5.06678 -11.3 
-6.63703 -5.06678 1 
6.92554 -4.6647 -11.3 
6.92554 -4.6647 1 
-7.18971 -4.24623 -11.3 
-7.18971 -4.24623 1 
0.169765 -3.9964 -0.3 
0.169765 -3.9964 1 
-0.508071 -3.9676 -0.3 
-0.508071 -3.9676 1 
0 -3.95 -15.3 
4.33681e-16 -3.95 -15.3 
0 -3.95 -11.3 
4.33681e-16 -3.95 -11.3 
0.842717 -3.91022 -0.3 
0.842717 -3.91022 1 
-1.17129 -3.82467 -0.3 
-1.17129 -3.82467 1 
7.42864 -3.81285 -11.3 
7.42864 -3.81285 1 
1.49143 -3.71156 -0.3 
1.49143 -3.71156 1 
-1.80081 -3.5717 -0.3 
-1.80081 -3.5717 1 
2.09723 -3.40612 -0.3 
2.09723 -3.40612 1 
-7.64147 -3.36608 -11.3 
-7.64147 -3.36608 1 
-2.37853 -3.21599 -0.3 
-2.37853 -3.21599 1 
2.6427 -3.00269 -0.3 
2.6427 -3.00269 1 
7.82745 -2.90748 -11.3 
7.82745 -2.90748 1 
-2.88782 -2.76776 -0.3 
-2.88782 -2.76776 1 
-4.86797e-16 -2.65 -18.4 
-4.86797e-16 -2.65 -15.3 
-0.460168 -2.60974 -18.4 
0.460168 -2.60974 -18.4 
-0.460168 -2.60974 -15.3 
0.460168 -2.60974 -15.3 
3.11214 -2.51288 -0.3 
3.11214 -2.51288 1 
-0.906353 -2.49019 -18.4 
0.906353 -2.49019 -18.4 
-0.906353 -2.49019 -15.3 
0.906353 -2.49019 -15.3 
-7.98595 -2.43867 -11.3 
-7.98595 -2.43867 1 
-1.325 -2.29497 -18.4 
1.325 -2.29497 -18.4 
-1.325 -2.29497 -15.3 
1.325 -2.29497 -15.3 
-3.31404 -2.2399 -0.3 
-3.31404 -2.2399 1 
-1.70339 -2.03002 -18.4 
1.70339 -2.03002 -18.4 
-1.70339 -2.03002 -15.3 
1.70339 -2.03002 -15.3 
-3.4208 -1.975 -15.3 
3.4208 -1.975 -15.3 
-3.4208 -1.975 -11.3 
3.4208 -1.975 -11.3 
8.11639 -1.9613 -11.3 
8.11639 -1.9613 1 
3.49206 -1.95078 -0.3 
3.49206 -1.95078 1 
-2.03002 -1.70339 -18.4 
2.03002 -1.70339 -18.4 
-2.03002 -1.70339 -15.3 
2.03002 -1.70339 -15.3 
-3.64491 -1.6476 -0.3 
-3.64491 -1.6476 1 
-8.21833 -1.47703 -11.3 
-8.21833 -1.47703 1 
3.77151 -1.33256 -0.3 
3.77151 -1.33256 1 
-2.29497 -1.325 -18.4 
2.29497 -1.325 -18.4 
-2.29497 -1.325 -15.3 
2.29497 -1.325 -15.3 
-3.87093 -1.00791 -0.3 
-3.87093 -1.00791 1 
8.29139 -0.987581 -11.3 
8.29139 -0.987581 1 
-2.49019 -0.906353 -18.4 
2.49019 -0.906353 -18.4 
-2.49019 -0.906353 -15.3 
2.49019 -0.906353 -15.3 
3.94246 -0.676003 -0.3 
3.94246 -0.676003 1 
-8.33533 -0.494659 -11.3 
-8.33533 -0.494659 1 
-2.60974 -0.460168 -18.4 
2.60974 -0.460168 -18.4 
-2.60974 -0.460168 -15.3 
2.60974 -0.460168 -15.3 
-3.98559 -0.339224 -0.3 
-3.98559 -0.339224 1 
4.48794e-17 -0.244312 -18.4 
4.48794e-17 -0.244312 -16.4 
-0.0424244 -0.240601 -18.4 
0.0424244 -0.240601 -18.4 
-0.0424244 -0.240601 -16.4 
0.0424244 -0.240601 -16.4 
-0.0835597 -0.229578 -18.4 
0.0835597 -0.229578 -18.4 
-0.0835597 -0.229578 -16.4 
0.0835597 -0.229578 -16.4 
-0.122156 -0.211581 -18.4 
0.122156 -0.211581 -18.4 
-0.122156 -0.211581 -16.4 
0.122156 -0.211581 -16.4 
-0.157041 -0.187154 -18.4 
0.157041 -0.187154 -18.4 
-0.157041 -0.187154 -16.4 
0.157041 -0.187154 -16.4 
-0.187154 -0.157041 -18.4 
0.187154 -0.157041 -18.4 
-0.187154 -0.157041 -16.4 
0.187154 -0.157041 -16.4 
-0.211581 -0.122156 -18.4 
0.211581 -0.122156 -18.4 
-0.211581 -0.122156 -16.4 
0.211581 -0.122156 -16.4 
-0.229578 -0.0835597 -18.4 
0.229578 -0.0835597 -18.4 
-0.229578 -0.0835597 -16.4 
0.229578 -0.0835597 -16.4 
-0.240601 -0.0424244 -18.4 
0.240601 -0.0424244 -18.4 
-0.240601 -0.0424244 -16.4 
0.240601 -0.0424244 -16.4 
8.35 -2.04516e-15 1 
4 -9.79717e-16 -0.3 
4 -9.79717e-16 1 
-0.244312 -5.98393e-17 -18.4 
-0.244312 -5.98393e-17 -16.4 
-0.244312 0 -18.4 
2.65 0 -18.4 
0 0 -16.4 
2.65 0 -15.3 
8.35 0 -11.3 
0 0 -0.3 
4 0 1 
8.35 0 1 
0.244312 2.99196e-17 -18.4 
0.244312 2.99196e-17 -16.4 
-2.65 3.24531e-16 -18.4 
-2.65 3.24531e-16 -15.3 
-2.65 9.73594e-16 -15.3 
-8.35 1.02258e-15 -11.3 
-8.35 3.06774e-15 -11.3 
-0.240601 0.0424244 -18.4 
0.240601 0.0424244 -18.4 
-0.240601 0.0424244 -16.4 
0.240601 0.0424244 -16.4 
-0.229578 0.0835597 -18.4 
0.229578 0.0835597 -18.4 
-0.229578 0.0835597 -16.4 
0.229578 0.0835597 -16.4 
-0.211581 0.122156 -18.4 
0.211581 0.122156 -18.4 
-0.211581 0.122156 -16.4 
0.211581 0.122156 -16.4 
-0.187154 0.157041 -18.4 
0.187154 0.157041 -18.4 
-0.187154 0.157041 -16.4 
0.187154 0.157041 -16.4 
-0.157041 0.187154 -18.4 
0.157041 0.187154 -18.4 
-0.157041 0.187154 -16.4 
0.157041 0.187154 -16.4 
-0.122156 0.211581 -18.4 
0.122156 0.211581 -18.4 
-0.122156 0.211581 -16.4 
0.122156 0.211581 -16.4 
-0.0835597 0.229578 -18.4 
0.0835597 0.229578 -18.4 
-0.0835597 0.229578 -16.4 
0.0835597 0.229578 -16.4 
-0.0424244 0.240601 -18.4 
0.0424244 0.240601 -18.4 
-0.0424244 0.240601 -16.4 
0.0424244 0.240601 -16.4 
-1.49598e-17 0.244312 -18.4 
-1.49598e-17 0.244312 -16.4 
-3.98559 0.339224 -0.3 
-3.98559 0.339224 1 
-2.60974 0.460168 -18.4 
2.60974 0.460168 -18.4 
-2.60974 0.460168 -15.3 
2.60974 0.460168 -15.3 
-8.33533 0.494659 -11.3 
-8.33533 0.494659 1 
3.94246 0.676003 -0.3 
3.94246 0.676003 1 
-2.49019 0.906353 -18.4 
2.49019 0.906353 -18.4 
-2.49019 0.906353 -15.3 
2.49019 0.906353 -15.3 
8.29139 0.987581 -11.3 
8.29139 0.987581 1 
-3.87093 1.00791 -0.3 
-3.87093 1.00791 1 
-2.29497 1.325 -18.4 
2.29497 1.325 -18.4 
-2.29497 1.325 -15.3 
2.29497 1.325 -15.3 
3.77151 1.33256 -0.3 
3.77151 1.33256 1 
-8.21833 1.47703 -11.3 
-8.21833 1.47703 1 
-3.64491 1.6476 -0.3 
-3.64491 1.6476 1 
-2.03002 1.70339 -18.4 
2.03002 1.70339 -18.4 
-2.03002 1.70339 -15.3 
2.03002 1.70339 -15.3 
3.49206 1.95078 -0.3 
3.49206 1.95078 1 
8.11639 1.9613 -11.3 
8.11639 1.9613 1 
-3.4208 1.975 -15.3 
3.4208 1.975 -15.3 
-3.4208 1.975 -11.3 
3.4208 1.975 -11.3 
-1.70339 2.03002 -18.4 
1.70339 2.03002 -18.4 
-1.70339 2.03002 -15.3 
1.70339 2.03002 -15.3 
-3.31404 2.2399 -0.3 
-3.31404 2.2399 1 
-1.325 2.29497 -18.4 
1.325 2.29497 -18.4 
-1.325 2.29497 -15.3 
1.325 2.29497 -15.3 
-7.98595 2.43867 -11.3 
-7.98595 2.43867 1 
-0.906353 2.49019 -18.4 
0.906353 2.49019 -18.4 
-0.906353 2.49019 -15.3 
0.906353 2.49019 -15.3 
3.11214 2.51288 -0.3 
3.11214 2.51288 1 
-0.460168 2.60974 -18.4 
0.460168 2.60974 -18.4 
-0.460168 2.60974 -15.3 
0.460168 2.60974 -15.3 
1.62266e-16 2.65 -18.4 
1.62266e-16 2.65 -15.3 
-2.88782 2.76776 -0.3 
-2.88782 2.76776 1 
7.82745 2.90748 -11.3 
7.82745 2.90748 1 
2.6427 3.00269 -0.3 
2.6427 3.00269 1 
-2.37853 3.21599 -0.3 
-2.37853 3.21599 1 
-7.64147 3.36608 -11.3 
-7.64147 3.36608 1 
2.09723 3.40612 -0.3 
2.09723 3.40612 1 
-1.80081 3.5717 -0.3 
-1.80081 3.5717 1 
1.49143 3.71156 -0.3 
1.49143 3.71156 1 
7.42864 3.81285 -11.3 
7.42864 3.81285 1 
-1.17129 3.82467 -0.3 
-1.17129 3.82467 1 
0.842717 3.91022 -0.3 
0.842717 3.91022 1 
1.45121e-15 3.95 -15.3 
1.73472e-15 3.95 -15.3 
1.45121e-15 3.95 -11.3 
1.73472e-15 3.95 -11.3 
-0.508071 3.9676 -0.3 
-0.508071 3.9676 1 
0.169765 3.9964 -0.3 
0.169765 3.9964 1 
-7.18971 4.24623 -11.3 
-7.18971 4.24623 1 
6.92554 4.6647 -11.3 
6.92554 4.6647 1 
-6.63703 5.06678 -11.3 
-6.63703 5.06678 1 
6.32522 5.45106 -11.3 
6.32522 5.45106 1 
-5.99119 5.8162 -11.3 
-5.99119 5.8162 1 
5.63611 6.16091 -11.3 
5.63611 6.16091 1 
-5.26123 6.48397 -11.3 
-5.26123 6.48397 1 
4.86788 6.78427 -11.3 
4.86788 6.78427 1 
-4.45743 7.06073 -11.3 
-4.45743 7.06073 1 
4.03131 7.31239 -11.3 
4.03131 7.31239 1 
-3.59104 7.53836 -11.3 
-3.59104 7.53836 1 
3.13816 7.73786 -11.3 
3.13816 7.73786 1 
-2.67425 7.91018 -11.3 
-2.67425 7.91018 1 
2.20095 8.05471 -11.3 
2.20095 8.05471 1 
-1.71992 8.17095 -11.3 
-1.71992 8.17095 1 
1.23285 8.25848 -11.3 
1.23285 8.25848 1 
-0.741446 8.31702 -11.3 
-0.741446 8.31702 1 
0.247438 8.34633 -11.3 
0.247438 8.34633 1 
229 234 237 0 3 3 2 0
229 234 237 0 3 1 3 0
229 234 237 0 3 4 1 0
229 234 237 0 3 42 4 0
229 234 237 0 3 2 42 0
229 234 237 0 3 4 5 1
229 234 237 0 3 37 3 1
229 234 237 0 3 5 37 1
229 234 237 0 3 7 6 2
229 234 237 0 3 3 7 2
229 234 237 0 3 6 42 2
229 234 237 0 3 39 7 3
229 234 237 0 3 37 39 3
229 234 237 0 3 8 5 4
229 234 237 0 3 42 8 4
229 234 237 0 3 8 9 5
229 234 237 0 3 45 37 5
229 234 237 0 3 9 45 5
229 234 237 0 3 11 10 6
229 234 237 0 3 7 11 6
229 234 237 0 3 10 42 6
229 234 237 0 3 39 47 7
229 234 237 0 3 47 11 7
229 234 237 0 3 12 9 8
229 234 237 0 3 42 12 8
229 234 237 0 3 12 13 9
229 234 237 0 3 51 45 9
229 234 237 0 3 13 51 9
229 234 237 0 3 15 14 10
229 234 237 0 3 11 15 10
229 234 237 0 3 14 42 10
229 234 237 0 3 47 15 11
229 234 237 0 3 16 13 12
229 234 237 0 3 42 16 12
229 234 237 0 3 16 17 13
229 234 237 0 3 55 51 13
229 234 237 0 3 17 55 13
229 234 237 0 3 19 18 14
229 234 237 0 3 15 19 14
229 234 237 0 3 18 42 14
229 234 237 0 3 53 19 15
229 234 237 0 3 47 53 15
229 234 237 0 3 20 17 16
229 234 237 0 3 93 20 16
229 234 237 0 3 42 93 16
229 234 237 0 3 20 21 17
229 234 237 0 3 21 55 17
229 234 237 0 3 23 22 18
229 234 237 0 3 19 23 18
229 234 237 0 3 92 42 18
229 234 237 0 3 22 92 18
229 234 237 0 3 53 59 19
229 234 237 0 3 59 23 19
229 234 237 0 3 24 21 20
229 234 237 0 3 93 24 20
229 234 237 0 3 24 25 21
229 234 237 0 3 61 55 21
229 234 237 0 3 25 61 21
229 234 237 0 3 27 26 22
229 234 237 0 3 23 27 22
229 234 237 0 3 26 92 22
229 234 237 0 3 59 27 23
229 234 237 0 3 28 25 24
229 234 237 0 3 93 28 24
229 234 237 0 3 28 29 25
229 234 237 0 3 73 61 25
229 234 237 0 3 29 73 25
229 234 237 0 3 31 30 26
229 234 237 0 3 27 31 26
229 234 237 0 3 30 92 26
229 234 237 0 3 65 31 27
229 234 237 0 3 59 65 27
229 234 237 0 3 32 29 28
229 234 237 0 3 93 32 28
229 234 237 0 3 32 33 29
229 234 237 0 3 33 73 29
229 234 237 0 3 35 34 30
229 234 237 0 3 31 35 30
229 234 237 0 3 34 92 30
229 234 237 0 3 85 35 31
229 234 237 0 3 65 85 31
229 234 237 0 3 48 33 32
229 234 237 0 3 93 48 32
229 234 237 0 3 48 49 33
229 234 237 0 3 97 73 33
229 234 237 0 3 49 97 33
229 234 237 0 3 57 56 34
229 234 237 0 3 35 57 34
229 234 237 0 3 56 92 34
229 234 237 0 3 85 103 35
229 234 237 0 3 103 57 35
229 234 237 0 3 38 39 36
229 234 237 0 3 39 37 36
229 234 237 0 3 37 44 36
229 234 237 0 3 44 174 36
229 234 237 0 3 174 38 36
229 234 237 0 3 45 44 37
229 234 237 0 3 46 47 38
229 234 237 0 3 47 39 38
229 234 237 0 3 174 46 38
229 234 237 0 3 92 90 41
229 234 237 0 3 42 92 41
229 234 237 0 3 90 82 41
229 234 237 0 3 82 76 41
229 234 237 0 3 76 70 41
229 234 237 0 3 70 67 41
229 234 237 0 3 67 71 41
229 234 237 0 3 71 77 41
229 234 237 0 3 77 83 41
229 234 237 0 3 83 91 41
229 234 237 0 3 91 42 41
229 234 237 0 3 91 93 42
229 234 237 0 3 45 50 44
229 234 237 0 3 50 174 44
229 234 237 0 3 51 50 45
229 234 237 0 3 52 53 46
229 234 237 0 3 53 47 46
229 234 237 0 3 174 52 46
229 234 237 0 3 62 49 48
229 234 237 0 3 93 62 48
229 234 237 0 3 62 63 49
229 234 237 0 3 107 97 49
229 234 237 0 3 63 107 49
229 234 237 0 3 51 54 50
229 234 237 0 3 54 174 50
229 234 237 0 3 55 54 51
229 234 237 0 3 58 59 52
229 234 237 0 3 59 53 52
229 234 237 0 3 174 58 52
229 234 237 0 3 55 60 54
229 234 237 0 3 60 174 54
229 234 237 0 3 61 60 55
229 234 237 0 3 79 78 56
229 234 237 0 3 57 79 56
229 234 237 0 3 78 92 56
229 234 237 0 3 103 79 57
229 234 237 0 3 64 65 58
229 234 237 0 3 65 59 58
229 234 237 0 3 174 64 58
229 234 237 0 3 61 72 60
229 234 237 0 3 72 174 60
229 234 237 0 3 73 72 61
229 234 237 0 3 94 63 62
229 234 237 0 3 93 94 62
229 234 237 0 3 94 95 63
229 234 237 0 3 95 107 63
229 234 237 0 3 84 85 64
229 234 237 0 3 85 65 64
229 234 237 0 3 174 84 64
229 234 237 0 3 70 68 66
229 234 237 0 3 67 70 66
229 234 237 0 3 69 67 66
229 234 237 0 3 130 69 66
229 234 237 0 3 132 130 66
229 234 237 0 3 68 132 66
229 234 237 0 3 69 71 67
229 234 237 0 3 76 74 68
229 234 237 0 3 70 76 68
229 234 237 0 3 136 132 68
229 234 237 0 3 74 136 68
229 234 237 0 3 75 71 69
229 234 237 0 3 133 75 69
229 234 237 0 3 130 133 69
229 234 237 0 3 75 77 71
229 234 237 0 3 73 96 72
229 234 237 0 3 96 174 72
229 234 237 0 3 97 96 73
229 234 237 0 3 82 80 74
229 234 237 0 3 76 82 74
229 234 237 0 3 140 136 74
229 234 237 0 3 80 140 74
229 234 237 0 3 81 77 75
229 234 237 0 3 137 81 75
229 234 237 0 3 133 137 75
229 234 237 0 3 81 83 77
229 234 237 0 3 105 104 78
229 234 237 0 3 79 105 78
229 234 237 0 3 104 92 78
229 234 237 0 3 113 105 79
229 234 237 0 3 103 113 79
229 234 237 0 3 88 86 80
229 234 237 0 3 82 88 80
229 234 237 0 3 144 140 80
229 234 237 0 3 86 144 80
229 234 237 0 3 87 83 81
229 234 237 0 3 141 87 81
229 234 237 0 3 137 141 81
229 234 237 0 3 90 88 82
229 234 237 0 3 89 91 83
229 234 237 0 3 87 89 83
229 234 237 0 3 102 103 84
229 234 237 0 3 103 85 84
229 234 237 0 3 174 102 84
229 234 237 0 3 100 98 86
229 234 237 0 3 88 100 86
229 234 237 0 3 148 144 86
229 234 237 0 3 98 148 86
229 234 237 0 3 99 89 87
229 234 237 0 3 145 99 87
229 234 237 0 3 141 145 87
229 234 237 0 3 90 100 88
229 234 237 0 3 101 91 89
229 234 237 0 3 99 101 89
229 234 237 0 3 256 254 90
229 234 237 0 3 92 256 90
229 234 237 0 3 254 181 90
229 234 237 0 3 181 126 90
229 234 237 0 3 126 118 90
229 234 237 0 3 118 110 90
229 234 237 0 3 110 100 90
229 234 237 0 3 255 93 91
229 234 237 0 3 111 119 91
229 234 237 0 3 101 111 91
229 234 237 0 3 119 127 91
229 234 237 0 3 127 172 91
229 234 237 0 3 172 255 91
229 234 237 0 3 183 256 92
229 234 237 0 3 104 122 92
229 234 237 0 3 122 183 92
229 234 237 0 3 257 114 93
229 234 237 0 3 114 94 93
229 234 237 0 3 255 257 93
229 234 237 0 3 114 95 94
229 234 237 0 3 114 115 95
229 234 237 0 3 121 107 95
229 234 237 0 3 115 121 95
229 234 237 0 3 97 106 96
229 234 237 0 3 106 174 96
229 234 237 0 3 107 106 97
229 234 237 0 3 110 108 98
229 234 237 0 3 100 110 98
229 234 237 0 3 152 148 98
229 234 237 0 3 108 152 98
229 234 237 0 3 109 101 99
229 234 237 0 3 149 109 99
229 234 237 0 3 145 149 99
229 234 237 0 3 109 111 101
229 234 237 0 3 112 113 102
229 234 237 0 3 113 103 102
229 234 237 0 3 174 112 102
229 234 237 0 3 123 122 104
229 234 237 0 3 105 123 104
229 234 237 0 3 113 129 105
229 234 237 0 3 129 123 105
229 234 237 0 3 107 120 106
229 234 237 0 3 120 174 106
229 234 237 0 3 121 120 107
229 234 237 0 3 118 116 108
229 234 237 0 3 110 118 108
229 234 237 0 3 156 152 108
229 234 237 0 3 116 156 108
229 234 237 0 3 117 111 109
229 234 237 0 3 153 117 109
229 234 237 0 3 149 153 109
229 234 237 0 3 117 119 111
229 234 237 0 3 128 129 112
229 234 237 0 3 129 113 112
229 234 237 0 3 174 128 112
229 234 237 0 3 173 115 114
229 234 237 0 3 257 173 114
229 234 237 0 3 173 176 115
229 234 237 0 3 166 121 115
229 234 237 0 3 176 166 115
229 234 237 0 3 126 124 116
229 234 237 0 3 118 126 116
229 234 237 0 3 160 156 116
229 234 237 0 3 124 160 116
229 234 237 0 3 125 119 117
229 234 237 0 3 157 125 117
229 234 237 0 3 153 157 117
229 234 237 0 3 125 127 119
229 234 237 0 3 121 165 120
229 234 237 0 3 165 174 120
229 234 237 0 3 166 165 121
229 234 237 0 3 123 183 122
229 234 237 0 3 225 183 123
229 234 237 0 3 129 225 123
229 234 237 0 3 181 179 124
229 234 237 0 3 126 181 124
229 234 237 0 3 167 160 124
229 234 237 0 3 179 167 124
229 234 237 0 3 170 127 125
229 234 237 0 3 161 170 125
229 234 237 0 3 157 161 125
229 234 237 0 3 170 172 127
229 234 237 0 3 218 219 128
229 234 237 0 3 219 129 128
229 234 237 0 3 174 218 128
229 234 237 0 3 219 225 129
229 234 237 0 3 131 133 130
229 234 237 0 3 134 131 130
229 234 237 0 3 132 134 130
229 234 237 0 3 135 133 131
229 234 237 0 3 171 135 131
229 234 237 0 3 134 171 131
229 234 237 0 3 138 134 132
229 234 237 0 3 136 138 132
229 234 237 0 3 135 137 133
229 234 237 0 3 138 171 134
229 234 237 0 3 139 137 135
229 234 237 0 3 171 139 135
229 234 237 0 3 142 138 136
229 234 237 0 3 140 142 136
229 234 237 0 3 139 141 137
229 234 237 0 3 142 171 138
229 234 237 0 3 143 141 139
229 234 237 0 3 171 143 139
229 234 237 0 3 146 142 140
229 234 237 0 3 144 146 140
229 234 237 0 3 143 145 141
229 234 237 0 3 146 171 142
229 234 237 0 3 147 145 143
229 234 237 0 3 171 147 143
229 234 237 0 3 150 146 144
229 234 237 0 3 148 150 144
229 234 237 0 3 147 149 145
229 234 237 0 3 150 171 146
229 234 237 0 3 151 149 147
229 234 237 0 3 171 151 147
229 234 237 0 3 154 150 148
229 234 237 0 3 152 154 148
229 234 237 0 3 151 153 149
229 234 237 0 3 154 171 150
229 234 237 0 3 155 153 151
229 234 237 0 3 171 155 151
229 234 237 0 3 158 154 152
229 234 237 0 3 156 158 152
229 234 237 0 3 155 157 153
229 234 237 0 3 158 171 154
229 234 237 0 3 159 157 155
229 234 237 0 3 171 159 155
229 234 237 0 3 162 158 156
229 234 237 0 3 160 162 156
229 234 237 0 3 159 161 157
229 234 237 0 3 162 171 158
229 234 237 0 3 163 161 159
229 234 237 0 3 171 163 159
229 234 237 0 3 168 162 160
229 234 237 0 3 167 168 160
229 234 237 0 3 177 170 161
229 234 237 0 3 163 177 161
229 234 237 0 3 168 171 162
229 234 237 0 3 178 177 163
229 234 237 0 3 171 178 163
229 234 237 0 3 227 166 176
229 234 237 0 3 233 227 176
229 234 237 0 3 166 226 165
229 234 237 0 3 226 174 165
229 234 237 0 3 227 226 166
229 234 237 0 3 186 168 167
229 234 237 0 3 184 186 167
229 234 237 0 3 186 171 168
229 234 237 0 3 179 184 167
229 234 237 0 3 221 172 170
229 234 237 0 3 177 221 170
229 234 237 0 3 191 187 171
229 234 237 0 3 187 178 171
229 234 237 0 3 203 199 171
229 234 237 0 3 199 195 171
229 234 237 0 3 195 191 171
229 234 237 0 3 215 211 171
229 234 237 0 3 211 207 171
229 234 237 0 3 207 203 171
229 234 237 0 3 210 214 171
229 234 237 0 3 214 217 171
229 234 237 0 3 217 215 171
229 234 237 0 3 198 202 171
229 234 237 0 3 202 206 171
229 234 237 0 3 206 210 171
229 234 237 0 3 186 190 171
229 234 237 0 3 190 194 171
229 234 237 0 3 194 198 171
229 234 237 0 3 223 255 172
229 234 237 0 3 221 223 172
229 234 237 0 3 232 176 173
229 234 237 0 3 257 232 173
229 234 237 0 3 244 234 174
229 234 237 0 3 234 218 174
229 234 237 0 3 288 282 174
229 234 237 0 3 282 262 174
229 234 237 0 3 262 244 174
229 234 237 0 3 308 300 174
229 234 237 0 3 300 294 174
229 234 237 0 3 294 288 174
229 234 237 0 3 296 302 174
229 234 237 0 3 302 310 174
229 234 237 0 3 310 308 174
229 234 237 0 3 274 286 174
229 234 237 0 3 286 292 174
229 234 237 0 3 292 296 174
229 234 237 0 3 226 240 174
229 234 237 0 3 240 250 174
229 234 237 0 3 250 274 174
229 234 237 0 3 232 233 176
229 234 237 0 3 185 221 177
229 234 237 0 3 178 185 177
229 234 237 0 3 187 185 178
229 234 237 0 3 222 220 179
229 234 237 0 3 181 222 179
229 234 237 0 3 220 184 179
229 234 237 0 3 254 222 181
229 234 237 0 3 224 256 183
229 234 237 0 3 225 224 183
229 234 237 0 3 220 188 184
229 234 237 0 3 190 186 184
229 234 237 0 3 188 190 184
229 234 237 0 3 189 229 185
229 234 237 0 3 229 221 185
229 234 237 0 3 187 189 185
229 234 237 0 3 191 189 187
229 234 237 0 3 220 228 188
229 234 237 0 3 228 192 188
229 234 237 0 3 194 190 188
229 234 237 0 3 192 194 188
229 234 237 0 3 193 237 189
229 234 237 0 3 237 229 189
229 234 237 0 3 191 193 189
229 234 237 0 3 195 193 191
229 234 237 0 3 228 236 192
229 234 237 0 3 236 196 192
229 234 237 0 3 198 194 192
229 234 237 0 3 196 198 192
229 234 237 0 3 197 247 193
229 234 237 0 3 247 237 193
229 234 237 0 3 195 197 193
229 234 237 0 3 199 197 195
229 234 237 0 3 236 246 196
229 234 237 0 3 246 200 196
229 234 237 0 3 202 198 196
229 234 237 0 3 200 202 196
229 234 237 0 3 201 259 197
229 234 237 0 3 259 247 197
229 234 237 0 3 199 201 197
229 234 237 0 3 203 201 199
229 234 237 0 3 246 258 200
229 234 237 0 3 258 204 200
229 234 237 0 3 206 202 200
229 234 237 0 3 204 206 200
229 234 237 0 3 205 265 201
229 234 237 0 3 265 259 201
229 234 237 0 3 203 205 201
229 234 237 0 3 207 205 203
229 234 237 0 3 258 264 204
229 234 237 0 3 264 208 204
229 234 237 0 3 210 206 204
229 234 237 0 3 208 210 204
229 234 237 0 3 209 271 205
229 234 237 0 3 271 265 205
229 234 237 0 3 207 209 205
229 234 237 0 3 211 209 207
229 234 237 0 3 264 270 208
229 234 237 0 3 270 212 208
229 234 237 0 3 214 210 208
229 234 237 0 3 212 214 208
229 234 237 0 3 213 277 209
229 234 237 0 3 277 271 209
229 234 237 0 3 211 213 209
229 234 237 0 3 215 213 211
229 234 237 0 3 270 276 212
229 234 237 0 3 276 216 212
229 234 237 0 3 217 214 212
229 234 237 0 3 216 217 212
229 234 237 0 3 216 280 213
229 234 237 0 3 280 277 213
229 234 237 0 3 215 216 213
229 234 237 0 3 217 216 215
229 234 237 0 3 276 280 216
229 234 237 0 3 234 235 218
229 234 237 0 3 235 219 218
229 234 237 0 3 235 243 219
229 234 237 0 3 243 225 219
229 234 237 0 3 230 228 220
229 234 237 0 3 222 230 220
229 234 237 0 3 229 223 221
229 234 237 0 3 254 230 222
229 234 237 0 3 231 255 223
229 234 237 0 3 229 231 223
229 234 237 0 3 243 242 224
229 234 237 0 3 225 243 224
229 234 237 0 3 242 256 224
229 234 237 0 3 227 240 226
229 234 237 0 3 241 240 227
229 234 237 0 3 233 253 227
229 234 237 0 3 253 241 227
229 234 237 0 3 238 236 228
229 234 237 0 3 230 238 228
229 234 237 0 3 237 231 229
229 234 237 0 3 254 238 230
229 234 237 0 3 239 255 231
229 234 237 0 3 237 239 231
229 234 237 0 3 252 233 232
229 234 237 0 3 257 252 232
229 234 237 0 3 252 253 233
229 234 237 0 3 244 245 234
229 234 237 0 3 245 235 234
229 234 237 0 3 245 291 235
229 234 237 0 3 291 269 235
229 234 237 0 3 269 243 235
229 234 237 0 3 248 246 236
229 234 237 0 3 238 248 236
229 234 237 0 3 247 239 237
229 234 237 0 3 254 248 238
229 234 237 0 3 249 255 239
229 234 237 0 3 247 249 239
229 234 237 0 3 241 250 240
229 234 237 0 3 251 250 241
229 234 237 0 3 253 285 241
229 234 237 0 3 285 251 241
229 234 237 0 3 269 268 242
229 234 237 0 3 243 269 242
229 234 237 0 3 268 256 242
229 234 237 0 3 262 263 244
229 234 237 0 3 263 245 244
229 234 237 0 3 263 313 245
229 234 237 0 3 313 291 245
229 234 237 0 3 260 258 246
229 234 237 0 3 248 260 246
229 234 237 0 3 259 249 247
229 234 237 0 3 254 260 248
229 234 237 0 3 261 255 249
229 234 237 0 3 259 261 249
229 234 237 0 3 251 274 250
229 234 237 0 3 275 274 251
229 234 237 0 3 315 275 251
229 234 237 0 3 285 299 251
229 234 237 0 3 299 315 251
229 234 237 0 3 284 253 252
229 234 237 0 3 257 284 252
229 234 237 0 3 284 285 253
229 234 237 0 3 307 304 254
229 234 237 0 3 256 307 254
229 234 237 0 3 266 260 254
229 234 237 0 3 304 266 254
229 234 237 0 3 304 257 255
229 234 237 0 3 261 267 255
229 234 237 0 3 267 304 255
229 234 237 0 3 268 290 256
229 234 237 0 3 290 312 256
229 234 237 0 3 312 316 256
229 234 237 0 3 316 320 256
229 234 237 0 3 320 324 256
229 234 237 0 3 324 328 256
229 234 237 0 3 328 332 256
229 234 237 0 3 332 307 256
229 234 237 0 3 314 298 257
229 234 237 0 3 318 314 257
229 234 237 0 3 298 284 257
229 234 237 0 3 307 326 257
229 234 237 0 3 326 322 257
229 234 237 0 3 322 318 257
229 234 237 0 3 304 307 257
229 234 237 0 3 266 264 258
229 234 237 0 3 260 266 258
229 234 237 0 3 265 261 259
229 234 237 0 3 265 267 261
229 234 237 0 3 282 283 262
229 234 237 0 3 283 263 262
229 234 237 0 3 283 321 263
229 234 237 0 3 321 317 263
229 234 237 0 3 317 313 263
229 234 237 0 3 272 270 264
229 234 237 0 3 266 272 264
229 234 237 0 3 271 267 265
229 234 237 0 3 304 272 266
229 234 237 0 3 273 304 267
229 234 237 0 3 271 273 267
229 234 237 0 3 291 290 268
229 234 237 0 3 269 291 268
229 234 237 0 3 278 276 270
229 234 237 0 3 272 278 270
229 234 237 0 3 277 273 271
229 234 237 0 3 304 278 272
229 234 237 0 3 279 304 273
229 234 237 0 3 277 279 273
229 234 237 0 3 275 286 274
229 234 237 0 3 287 286 275
229 234 237 0 3 315 319 275
229 234 237 0 3 319 287 275
229 234 237 0 3 281 280 276
229 234 237 0 3 278 281 276
229 234 237 0 3 280 279 277
229 234 237 0 3 304 281 278
229 234 237 0 3 281 304 279
229 234 237 0 3 280 281 279
229 234 237 0 3 288 289 282
229 234 237 0 3 289 283 282
229 234 237 0 3 289 325 283
229 234 237 0 3 325 321 283
229 234 237 0 3 298 285 284
229 234 237 0 3 298 299 285
229 234 237 0 3 287 292 286
229 234 237 0 3 293 292 287
229 234 237 0 3 319 323 287
229 234 237 0 3 323 327 287
229 234 237 0 3 327 293 287
229 234 237 0 3 294 295 288
229 234 237 0 3 295 289 288
229 234 237 0 3 295 329 289
229 234 237 0 3 329 325 289
229 234 237 0 3 313 312 290
229 234 237 0 3 291 313 290
229 234 237 0 3 293 296 292
229 234 237 0 3 297 296 293
229 234 237 0 3 327 331 293
229 234 237 0 3 331 297 293
229 234 237 0 3 300 301 294
229 234 237 0 3 301 295 294
229 234 237 0 3 301 337 295
229 234 237 0 3 337 333 295
229 234 237 0 3 333 329 295
229 234 237 0 3 297 302 296
229 234 237 0 3 303 302 297
229 234 237 0 3 331 335 297
229 234 237 0 3 335 303 297
229 234 237 0 3 314 299 298
229 234 237 0 3 314 315 299
229 234 237 0 3 308 309 300
229 234 237 0 3 309 301 300
229 234 237 0 3 309 341 301
229 234 237 0 3 341 337 301
229 234 237 0 3 303 310 302
229 234 237 0 3 311 310 303
229 234 237 0 3 335 339 303
229 234 237 0 3 339 343 303
229 234 237 0 3 343 311 303
229 234 237 0 3 344 346 307
229 234 237 0 3 340 344 307
229 234 237 0 3 346 342 307
229 234 237 0 3 342 338 307
229 234 237 0 3 338 334 307
229 234 237 0 3 334 330 307
229 234 237 0 3 330 326 307
229 234 237 0 3 332 336 307
229 234 237 0 3 336 340 307
229 234 237 0 3 310 311 308
229 234 237 0 3 311 309 308
229 234 237 0 3 311 347 309
229 234 237 0 3 347 345 309
229 234 237 0 3 345 341 309
229 234 237 0 3 343 347 311
229 234 237 0 3 317 316 312
229 234 237 0 3 313 317 312
229 234 237 0 3 318 315 314
229 234 237 0 3 318 319 315
229 234 237 0 3 321 320 316
229 234 237 0 3 317 321 316
229 234 237 0 3 322 319 318
229 234 237 0 3 322 323 319
229 234 237 0 3 325 324 320
229 234 237 0 3 321 325 320
229 234 237 0 3 326 323 322
229 234 237 0 3 326 327 323
229 234 237 0 3 329 328 324
229 234 237 0 3 325 329 324
229 234 237 0 3 330 327 326
229 234 237 0 3 330 331 327
229 234 237 0 3 333 332 328
229 234 237 0 3 329 333 328
229 234 237 0 3 334 331 330
229 234 237 0 3 334 335 331
229 234 237 0 3 337 336 332
229 234 237 0 3 333 337 332
229 234 237 0 3 338 335 334
229 234 237 0 3 338 339 335
229 234 237 0 3 341 340 336
229 234 237 0 3 337 341 336
229 234 237 0 3 342 339 338
229 234 237 0 3 342 343 339
229 234 237 0 3 345 344 340
229 234 237 0 3 341 345 340
229 234 237 0 3 346 343 342
229 234 237 0 3 346 347 343
229 234 237 0 3 347 346 344
229 234 237 0 3 345 347 344
